<svg width="42" height="42" viewBox="0 0 42 42" fill="none" xmlns="http://www.w3.org/2000/svg">
<path d="M36.75 13.125H5.25C4.9019 13.125 4.56806 12.9867 4.32192 12.7406C4.07578 12.4944 3.9375 12.1606 3.9375 11.8125C3.9375 11.4644 4.07578 11.1306 4.32192 10.8844C4.56806 10.6383 4.9019 10.5 5.25 10.5H36.75C37.0981 10.5 37.4319 10.6383 37.6781 10.8844C37.9242 11.1306 38.0625 11.4644 38.0625 11.8125C38.0625 12.1606 37.9242 12.4944 37.6781 12.7406C37.4319 12.9867 37.0981 13.125 36.75 13.125Z" fill="#FFD24E"/>
<path d="M36.75 22.3125H5.25C4.9019 22.3125 4.56806 22.1742 4.32192 21.9281C4.07578 21.6819 3.9375 21.3481 3.9375 21C3.9375 20.6519 4.07578 20.3181 4.32192 20.0719C4.56806 19.8258 4.9019 19.6875 5.25 19.6875H36.75C37.0981 19.6875 37.4319 19.8258 37.6781 20.0719C37.9242 20.3181 38.0625 20.6519 38.0625 21C38.0625 21.3481 37.9242 21.6819 37.6781 21.9281C37.4319 22.1742 37.0981 22.3125 36.75 22.3125Z" fill="#FFD24E"/>
<path d="M36.75 31.5H5.25C4.9019 31.5 4.56806 31.3617 4.32192 31.1156C4.07578 30.8694 3.9375 30.5356 3.9375 30.1875C3.9375 29.8394 4.07578 29.5056 4.32192 29.2594C4.56806 29.0133 4.9019 28.875 5.25 28.875H36.75C37.0981 28.875 37.4319 29.0133 37.6781 29.2594C37.9242 29.5056 38.0625 29.8394 38.0625 30.1875C38.0625 30.5356 37.9242 30.8694 37.6781 31.1156C37.4319 31.3617 37.0981 31.5 36.75 31.5Z" fill="#FFD24E"/>
</svg>
