<svg width="22" height="22" viewBox="0 0 22 22" fill="none" xmlns="http://www.w3.org/2000/svg">
<path d="M10.9418 6.47949C8.22572 6.47949 5.97528 8.69113 5.97528 11.446C5.97528 14.2008 8.18692 16.4125 10.9418 16.4125C13.6966 16.4125 15.9083 14.162 15.9083 11.446C15.9083 8.72993 13.6578 6.47949 10.9418 6.47949ZM10.9418 14.6276C9.19574 14.6276 7.76011 13.192 7.76011 11.446C7.76011 9.69995 9.19574 8.26432 10.9418 8.26432C12.6878 8.26432 14.1234 9.69995 14.1234 11.446C14.1234 13.192 12.6878 14.6276 10.9418 14.6276Z" fill="#FFD24E"/>
<path d="M16.1023 7.48823C16.7237 7.48823 17.2275 6.98446 17.2275 6.36301C17.2275 5.74157 16.7237 5.23779 16.1023 5.23779C15.4808 5.23779 14.9771 5.74157 14.9771 6.36301C14.9771 6.98446 15.4808 7.48823 16.1023 7.48823Z" fill="#FFD24E"/>
<path d="M19.0123 3.45313C18.0035 2.40551 16.5679 1.8623 14.9383 1.8623H6.94532C3.56965 1.8623 1.31921 4.11275 1.31921 7.48841V15.4426C1.31921 17.111 1.86242 18.5466 2.94884 19.5942C3.99646 20.603 5.39329 21.1075 6.98412 21.1075H14.8995C16.5679 21.1075 17.9647 20.5642 18.9735 19.5942C20.0212 18.5854 20.5644 17.1498 20.5644 15.4814V7.48841C20.5644 5.85878 20.0212 4.46195 19.0123 3.45313ZM18.8571 15.4814C18.8571 16.6842 18.4303 17.6542 17.7319 18.3138C17.0335 18.9734 16.0635 19.3226 14.8995 19.3226H6.98412C5.8201 19.3226 4.85008 18.9734 4.15167 18.3138C3.45325 17.6154 3.10405 16.6454 3.10405 15.4426V7.48841C3.10405 6.32439 3.45325 5.35437 4.15167 4.65596C4.81128 3.99634 5.8201 3.64714 6.98412 3.64714H14.9771C16.1411 3.64714 17.1111 3.99634 17.8095 4.69476C18.4691 5.39317 18.8571 6.36319 18.8571 7.48841V15.4814Z" fill="#FFD24E"/>
</svg>
