<svg aria-hidden="true" style="position:absolute;width:0;height:0;overflow:hidden" xmlns="http://www.w3.org/2000/svg"><defs><symbol id="burger_menu_icon" viewBox="0 0 32 32"><path fill="#ffd24e" style="fill:var(--color1, #ffd24e)" d="M28 10H4a.997.997 0 0 1-1-1 .997.997 0 0 1 1-1h24a.997.997 0 0 1 1 1 .997.997 0 0 1-1 1zM28 17H4a.997.997 0 0 1-1-1 .997.997 0 0 1 1-1h24a.997.997 0 0 1 1 1 .997.997 0 0 1-1 1zM28 24H4a.997.997 0 0 1-1-1 .997.997 0 0 1 1-1h24a.997.997 0 0 1 1 1 .997.997 0 0 1-1 1z"/></symbol><symbol id="close_icon" viewBox="0 0 32 32"><path fill="none" stroke="#ffd24e" style="stroke:var(--color1, #ffd24e)" stroke-linejoin="round" stroke-linecap="round" stroke-width="2.56" d="m3.76 1.345 24.48 28.422M3.76 29.767 28.24 1.345"/></symbol><symbol id="for_list_elements" viewBox="0 0 32 32"><path fill="#b878a8" style="fill:var(--color2, #b878a8)" d="M3.692 9.788a.197.197 0 0 0 .198-.144c.083-.213.113-.447.322-.599.044-.03.014-.168 0-.257a.247.247 0 0 1 .096-.226c.056-.057.105-.119.149-.185-.105-.061-.08-.196-.143-.276-.14-.168-.311-.315-.46-.475-.069-.075-.036-.144.017-.226.124-.188.306-.133.477-.138v.064a.31.31 0 0 1 .036.495c-.036.039-.039.069.019.091.04.014.084.014.124 0 .105-.03.052-.163.102-.202a.382.382 0 0 0 .1-.408c-.176-.03-.03-.317-.248-.315.004-.016.005-.032.002-.048s-.01-.031-.021-.044c-.01-.013-.023-.023-.038-.029s-.031-.009-.048-.008c-.16 0-.198-.055-.063-.171.002-.016 0-.032-.005-.047s-.013-.029-.023-.041c-.019-.008-.039-.013-.059-.013s-.041.004-.059.013a.145.145 0 0 0-.079.089c-.019.088 0 .163-.138.174a.274.274 0 0 0-.256.246c-.019.166-.121.146-.226.146-.154 0-.176-.022-.179-.127s.074-.119.163-.144c.13-.033.135-.102.055-.24-.028-.044-.113-.066-.03-.144a.272.272 0 0 0 .074-.166c0-.135 0-.276.198-.243.014 0 .039-.022.047-.041a2.62 2.62 0 0 1 .16-.392.897.897 0 0 1 .262-.276c.141-.094.121-.262.223-.378a.546.546 0 0 1 .63-.188c.039.014.022-.017 0-.036-.008-.005-.018-.008-.028-.008s-.019.003-.028.008a.067.067 0 0 0 0 .056.305.305 0 0 0 .077.061s.028-.025-.016-.08c-.044-.119-.113-.232-.014-.276s.171 0 .251-.028c.08-.028.138-.036.047-.116-.028-.025-.069-.083-.063-.091.086-.097.178-.19.276-.276.234-.199.24-.196.237-.353V3.58c0-.11.05-.138.152-.157s.135-.099.201-.146c.045-.031.092-.06.14-.086.016.061.028.123.036.185v.329c0 .111.091.121.179.121a.405.405 0 0 1 .13 0c.03 0 .074.066.069.075-.072.127-.152.248-.229.367s-.138.088-.229.088a.711.711 0 0 0-.174.052c.036.048.074.095.116.138.121.113.223.215.044.37-.077.066.033.099.066.135.107.121.124.121.154 0s.022-.168.143-.163c.121.006.22 0 .331 0a.332.332 0 0 0 .226-.094.273.273 0 0 1 .349.02c.094.097.256.05.322.182.028-.017.077-.028.083-.052.03-.099-.044-.218.055-.309s.099-.144-.041-.144c-.141 0-.143-.083-.207-.135a.182.182 0 0 1-.039-.094s.033-.039.047-.036c.146.022.289-.03.444.044.306.149.314.133.636-.312.033-.066-.033 0-.096.072-.005.009-.007.019-.007.029s.003.02.007.029h.061c.174 0 .248-.075.196-.204 0-.017-.028-.03-.16.072s-.355-.213-.361-.246c-.017-.075.13-.251.218-.262.135.246.234-.124.361-.022.088-.086.212-.141.215-.295s.196-.05.245-.152c.094-.191.336-.174.46-.323 0 0 .083.033.083.047 0 .124.052.276-.091.359a.636.636 0 0 0-.141.138c-.063.075-.036.133.08.276.08.097.13.069.187 0a.36.36 0 0 1 .391-.162.312.312 0 0 0 .328-.163c.094-.135.226-.099.353-.105.08 0 .08.166.193.091.05-.033.074-.113.16-.091-.022.094.061.226-.105.276-.058.014-.141.03-.163.075-.105.188-.344.168-.466.323-.1.104-.216.192-.342.262a.349.349 0 0 0-.248.276v.064c0 .012.08.05.088.039.063-.061.154-.072.218-.11.157-.099.331-.163.49-.257.204.063.331-.177.551-.141.083 0 .179-.094.276-.119a.528.528 0 0 1 .262 0c.196.055.276-.182.463-.16.105-.171.276-.088.419-.108s.149.072.212.124.052.075 0 .144c-.088.149-.276.105-.375.226a.318.318 0 0 0 0 .454c.113.088.242.155.361.237.028.019.039.061.055.091a.409.409 0 0 1-.113.044.405.405 0 0 1-.13 0c-.016-.004-.032-.005-.048-.002s-.031.01-.044.021-.023.023-.029.038a.098.098 0 0 0-.008.048c0 .083-.017.199.03.246.088.094.105-.083.185-.086.22 0 .303-.21.427-.348 0 0-.105-.11-.091-.13.055-.097.198-.03.276-.141s.088.036.135.058c.091.044.198.039.276.135s.091.133-.022.152a.37.37 0 0 0-.212.133.213.213 0 0 0-.055.094.557.557 0 0 0 .253.177c.039 0 .105-.03.105-.05 0-.157.063-.243.237-.215a.917.917 0 0 0 .243-.008.109.109 0 0 0 .064-.068.098.098 0 0 0 .004-.048v-.276c0-.039.014-.099.041-.11.127-.063.259-.117.394-.16a.21.21 0 0 1 .235.072c.083.108.201.05.306.055a.28.28 0 0 1 .231.083.175.175 0 0 0 .11.05c.105 0 .168.033.066.138-.061.064-.129.121-.185.191-.012.018-.019.039-.02.061s.002.043.01.063.021.038.038.052a.126.126 0 0 0 .058.028c.083 0 .171 0 .253.022a.06.06 0 0 1 .044.044c0 .017-.025.039-.044.044s-.083 0-.121.025a.166.166 0 0 0-.088.205c.061.088.094 0 .14-.022.116-.072.124-.066.226 0 .041.022.069.146.135.039a.19.19 0 0 0 0-.174c-.055-.069-.127-.119-.014-.188.061-.036.063-.064 0-.097-.127-.066-.069-.235-.182-.326-.069-.058.03-.086.088-.091.066.004.132.004.198 0 .019 0 .055-.075.047-.083a1.315 1.315 0 0 0-.185-.188c-.085-.075-.014-.11.039-.121s.185 0 .171-.133c-.014-.133.063-.235-.102-.276-.24-.044-.306-.196-.295-.42s0-.243.256-.246c.11 0 .253-.044.322 0s.229.099.328.171a.3.3 0 0 0 .231.091.315.315 0 0 0 .223-.109c0-.014.036-.033.052-.028a.51.51 0 0 1 .168.063c.022.019.017.088 0 .127a.256.256 0 0 1-.085.094c-.052.036-.052.063 0 .094a.25.25 0 0 0 .061.017c.204.03.438-.086.606.124.182.039.402-.072.551.138h.063c.124.022.276-.066.372.05s.212.044.276.135c.063.091.143.072.229.083.171.022.204.069.176.254a.316.316 0 0 1-.085.16c-.047.044-.055.088 0 .091.174 0 .276.207.468.16.066-.017.141-.03.141-.097 0-.146.077-.218.196-.168a.277.277 0 0 1 .163.142.271.271 0 0 1 .01.216c-.019.047-.138.055-.061.138s.174.246.276.276c.157.033.209.094.229.237 0 .025.152.066.163.047.107-.141.179-.047.298 0 .163.052.276.124.248.276-.13 0-.201-.019-.253 0a.224.224 0 0 0-.077.146.114.114 0 0 0 .052.1.677.677 0 0 0 .185.014c.132 0 .168-.069.16-.202s-.094-.033-.066-.064c.196 0 .248.185.399.138l.028.094c-.276.017-.328.276-.457.453-.033.047-.047.066 0 .094a.13.13 0 0 0 .061.017c.108-.011.217-.011.325 0 .099.019.163.108.276.141s.201.133.344.121c.143-.011.198.149.298.226.041.033.069.041.094-.019s.028-.097 0-.124a1.53 1.53 0 0 0-.218-.237c-.08-.075-.025-.166-.041-.246.3.141.612.276.703.641.135.108.124.215 0 .317-.041.03-.033.055.017.094s.091.094.14.135c.05.041.102.149.044.221s-.113.036-.174.05h-.063c0-.091-.041-.135-.132-.199V7.55a.113.113 0 0 0-.02-.091c-.01-.013-.022-.023-.037-.03s-.03-.011-.046-.012c-.091 0-.176 0-.163.133a.111.111 0 0 1-.024.09c-.01.012-.023.022-.037.029s-.03.011-.046.011l-.251.028c-.008.004-.016.01-.021.018s-.009.017-.009.026c.003.011.009.02.017.028s.017.014.027.018c.151 0 .245.055.212.229a.183.183 0 0 0 0 .066c0 .075.041.119.116.113s.102 0 .113-.036a.537.537 0 0 0 .017-.174c0-.017-.033-.03-.041-.047-.069-.121-.069-.121.061-.138s.132-.017.132-.066c0 .157.039.202.132.199a.97.97 0 0 1 0 .132c0 .083.036.121.107.133.22.03.256 0 .289-.276-.001-.016.002-.031.007-.046s.014-.028.025-.04c.011-.011.024-.02.038-.027s.03-.009.046-.009c.074 0 .146.025.146.088 0 .146.088.141.19.191.149.072.237.276.386.342a.466.466 0 0 1 .276.276c.061.11.204.155.223.309 0 .072.094.138.149.199s.154.157.234.235c-.03.025-.055.066-.088.072-.083.017-.171 0-.253.028-.022 0-.033.069-.047.168.058-.083-.102-.091-.165-.146s-.11.075-.176.099c-.066.025-.061.058-.019.091.062.056.127.109.196.157.066.041.157-.033.165-.202.007-.008.015-.015.025-.019s.02-.007.03-.007.021.002.03.007c.01.004.018.011.025.019.085.088.171.133.276.028l.094-.094c.121-.116.22-.146.276-.091s.036.207.036.309c0 .102-.185.083-.063.185.041.03.127.014.19 0s.141.03.141.097.063.152.113.221c.042.068.076.14.102.215.149-.052.198.16.339.133a.222.222 0 0 0 .061-.017c.061-.03.063-.064 0-.091-.185-.099-.193-.326-.322-.467a.177.177 0 0 1 0-.168c.118-.097.036-.146 0-.243-.058-.174-.226-.315-.163-.536.025-.083.017-.166.096-.226s.028-.163.041-.246v-.063c-.212-.091-.066-.323-.182-.456-.052-.058-.055-.155-.102-.221a1.93 1.93 0 0 0-.182-.191c-.08-.097-.226-.149-.196-.317 0-.019-.061-.066-.096-.069-.041.004-.082-.008-.113-.034s-.053-.063-.057-.104a1.03 1.03 0 0 0-.325-.527c-.083-.066-.063-.152-.063-.237s-.028-.166-.146-.16a2.118 2.118 0 0 1-.276 0c-.039 0-.105-.03-.107-.052-.028-.246-.248-.34-.375-.508a.217.217 0 0 1-.036-.116 3.303 3.303 0 0 1 0-.398c0-.055.063-.105.102-.155s.061-.066.187 0c.052.025.143.052.174.028.094-.083.276-.171.063-.323v-.331c0-.11-.11-.174-.226-.091a.406.406 0 0 1-.223.102c-.08 0-.102.146-.209.127 0-.166.047-.345-.129-.475-.03-.022 0-.127 0-.191a.397.397 0 0 0-.047-.11.272.272 0 0 0-.091.058c-.036.047-.063.058-.094.022-.063-.083-.163-.13-.174-.26 0-.069-.099-.13-.149-.199s-.047-.019-.096 0c-.185.108-.187.102-.311-.022-.033-.03-.074-.055-.091-.094a.185.185 0 0 1 0-.127.147.147 0 0 1 .097-.069h.653c.146 0 .185-.063.176-.196 0-.022.063-.069.094-.069.223 0 .157-.152.168-.276.036-.014.099-.022.105-.044.017-.08-.041-.094-.105-.088V2.16c0-.017.036-.047.044-.044s.08.033.083.055c0 .086 0 .185.121.185.074 0 .132.025.143.091s0 .171.132.179c.353.022.35.028.551.226.077.069.127.177.276.171.066 0 .107.047.105.13 0 .199.017.395-.187.522a.273.273 0 0 0-.077.166c-.022.124-.11.105-.196.108-.185 0-.245.077-.198.232.044.136.098.268.163.395.001.006.004.011.007.016s.008.009.013.011l.016.006a.047.047 0 0 0 .033-.008c.005-.003.009-.008.011-.013l.006-.016a.047.047 0 0 0-.001-.017c0-.215.168-.298.276-.409a.46.46 0 0 0 .124-.35c.017-.168.094-.083.154-.019.014.014.036.041.047.039.237-.063.358.108.499.24 0 0 .061-.028.091-.039l.094-.036c.05.163.146.307.276.417.036.039.022.121.025.185 0 .155.047.207.171.066 0 0 .085.019.085.025-.022.191.146.254.24.364.033.041.025.058-.022.097s-.141.174-.276.146c0 0-.033.055-.039.088s.028.033.044.044a.425.425 0 0 1 .193.453v.262c0 .03-.058.055-.094.075a.308.308 0 0 0-.16.334c.011.011.025.019.04.024s.03.007.046.006c.091-.144.256-.052.353-.11a.55.55 0 0 1 .347-.124c.138.014.141 0 .061.144s-.091.215.03.251a.402.402 0 0 1 .322.34c.022.133.154.24.218.37.041.083-.036.094-.102.091h-.13v-.058c0-.014-.069-.097-.116-.019 0 0 .039.052.088.077a.173.173 0 0 1 0 .11c-.014.044-.141.061-.041.135a.276.276 0 0 1 .088.22c-.004.062.011.124.042.179s.078.098.134.125a.314.314 0 0 0 .348-.045v-.064c.276.036.229.331.389.458a.268.268 0 0 1-.091.069.695.695 0 0 1-.129 0c-.16.019-.16.019-.168.295v-.028a.06.06 0 0 0-.029-.008.06.06 0 0 0-.029.008c-.041.03-.096.066-.017.113 0 0 .05-.036.077-.086a.615.615 0 0 1 .276-.028c.039 0 .099.019.107.044.08.21.196.4.276.605.017.036-.036.119-.077.157s-.055.058 0 .097.13.171.276.157.226-.03.223.141c0 .127-.096.116-.182.124a.117.117 0 0 0-.066.078c0 .055.187.16.229.138s.083-.133.135-.028c.052.105.019.16.094.224s.058.185-.03.276c-.028.025-.033.072-.047.11s-.058 0-.063 0a1.49 1.49 0 0 0-.182-.301 1.018 1.018 0 0 0-.446-.362h.028a.067.067 0 0 0 0-.056c-.03-.044-.069-.097-.116-.019 0 0 .039.052.088.077.022.151.033.303.03.456 0 .069-.041.174.083.182 0 0 .025-.113.052-.166s.072-.058.08-.05c.063.055.149.11.174.185s-.039.251.099.351c.08.061.019.213.138.276a.082.082 0 0 1 .022.041c-.24.174.036.221.083.323h.063c0 .066.028.16 0 .193a.49.49 0 0 0-.074.591.746.746 0 0 1 0 .668c-.028.061-.066.127 0 .13.135 0 .179.044.201.185s.317.135.375.025c.022-.041-.017-.116-.028-.174s-.152-.066-.041-.138a.2.2 0 0 1 .087-.019c.03 0 .06.007.087.019.143.122.24.288.276.472a.376.376 0 0 1-.104.475c0 .155-.055.246-.231.213-.102-.019-.237.052-.298-.063-.036-.069 0-.174-.017-.26 0-.019-.052-.039-.085-.05s-.033.028-.041.044c-.008.017 0 .047 0 .066a.928.928 0 0 1-.047.113c-.028-.022-.083-.044-.08-.063a.38.38 0 0 0-.155-.4c-.105-.063-.102-.179-.143-.276s-.061-.047-.091.014-.226.105-.058.235c.085.066.047.193.135.276s.061.226 0 .353c-.132.237-.11.26.187.276v.712c0 .028.05.072.083.08.127.033.182-.08.276-.146s-.028-.091-.039-.138c-.044-.174-.223-.301-.176-.508.036-.017.077-.028.11-.047s.083-.08.091-.072a.6.6 0 0 0 .215.127c.182.041.251.293.474.29.016.102.022.206.017.309 0 .055-.091.094-.11.152s.063.146.105.218-.141.086-.072.185c.025.036.088.064.088.094 0 .124.047.251-.08.364s-.063.199 0 .218a.23.23 0 0 0 .174-.019c.072-.066.11-.108.196-.014s.196.052.212.102c.029.127.037.257.022.387 0 .066-.069.088-.141.097a.423.423 0 0 0-.157.099c-.074.058-.069.066 0 .188.039.072.044.179.102.215s.168 0 .253.025c.025 0 .05.05.066.08s-.028.041-.044.041h-.46c-.064.011-.13.005-.19-.019s-.114-.063-.154-.114c-.017-.019-.088 0-.127 0s-.094.202-.063.301c0 .036.05.083.08.088.091.012.184.012.276 0a.28.28 0 0 1 .223.105c.066.066.063.069 0 .191a.279.279 0 0 0-.03.177c0 .072.121.08.22.028.157-.088.16-.086.165.066 0 .204 0 .215-.204.232s-.176.014-.193.177c0 .086 0 .174-.08.232s0 .097.03.141c.03.044.033.075.05.113h-.331c-.094.166-.276.094-.402.152a.276.276 0 0 0-.195.306.494.494 0 0 1 0 .133c0 .072-.19.08-.074.185.036.033.124.014.187.019a.726.726 0 0 1 .066 0c.066.028.107.08.083.149s-.091.102-.096.157c-.017.133-.135.215-.157.331s0 .257-.124.353c-.022.017 0 .121.025.171.039.053.086.1.138.141.058.061.058.061-.014.188 0 .019-.022.036-.03.052-.099.213-.105.218-.276.088-.047-.033-.077-.055-.091 0-.028.124-.066.254.055.359.05.043.097.09.141.141.069.083.083.293 0 .353a.574.574 0 0 0-.22.577.126.126 0 0 1-.058.102.286.286 0 0 1-.176-.039 2.116 2.116 0 0 1-.226-.218c-.113.124-.05.262-.063.387s0 .221 0 .331c0 .017.025.036.039.05.058.061.157.127-.014.157a.852.852 0 0 1-.276 0c-.105 0-.151.066-.215.124s-.058.069-.019.144c.129.243.118.295-.044.447-.091.086-.146.224-.306.218-.021.002-.041.009-.059.021s-.031.029-.04.048c-.033.099.052.226-.055.306-.061.044-.207 0-.204.099s-.124.179-.138.276a.366.366 0 0 1-.276.31.627.627 0 0 0-.386.398c-.022.075-.041.124-.113.124-.149 0-.325-.036-.3.213-.207.135-.237.4-.419.552-.132.113-.248.248-.377.37a.362.362 0 0 1-.107.055 8.914 8.914 0 0 0-.827.406 2.014 2.014 0 0 1-.466.157c-.132.044-.237.188-.369.218a2.623 2.623 0 0 0-.449.202c-.132.05-.242.16-.377.204-.154.055-.3.129-.435.221-.146.091-.358-.028-.468.174-.019.036-.165 0-.251 0h-.529a.251.251 0 0 0-.229.091.395.395 0 0 1-.391.179 3.755 3.755 0 0 0-.397 0c-.171 0-.347-.022-.474.133-.259-.033-.466.232-.738.133-.193.207-.446.138-.672.124-.154 0-.212.141-.342.141h-.463c-.132 0-.298-.05-.391 0-.179.121-.325.196-.507.022a.102.102 0 0 0-.044-.019c-.146.257-.485-.019-.631.235-.13 0-.262 0-.389.019-.187.022-.402-.083-.551.121a.456.456 0 0 0-.094-.075c-.058-.022-.143-.066-.174-.044-.088.064-.152.149-.276.13-.19-.03-.405.064-.568-.064-.11-.083-.13 0-.193.03a.741.741 0 0 1-.311 0c-.058 0-.033-.041 0-.091.124-.166.121-.171-.099-.276-.077-.036-.102-.152-.24-.133h.03v-.058c0-.014-.069-.097-.116-.019 0 0 .039.052.088.077a.889.889 0 0 1 .025.329c0 .028-.066.069-.099.066a.761.761 0 0 1-.435-.34c-.039-.055-.061-.058-.096-.017-.058.065-.12.127-.185.185-.061.058-.083.058-.102-.072-.028-.199-.083-.135-.182-.05a.166.166 0 0 1-.168 0 .32.32 0 0 0-.457-.039.527.527 0 0 1-.538 0c-.16-.077-.298-.237-.51-.199-.127.025-.124-.077-.138-.166s-.058-.102-.135-.099c-.032-.002-.063.009-.086.031s-.038.051-.04.083a.217.217 0 0 1-.033.116.154.154 0 0 1-.113.035c-.039 0-.096-.028-.105-.055a1.566 1.566 0 0 1-.014-.193c-.014-.135-.118-.207-.209-.124-.171.163-.353.102-.551.088-.083-.144-.262-.058-.342-.121a.861.861 0 0 0-.477-.127 1.66 1.66 0 0 1-.388-.171v-.044c0-.011.03-.041.047-.041h.526c.014 0 .044-.066.033-.086s-.091-.102-.096-.157c0-.108-.052-.16-.157-.149s-.306-.058-.422.102c-.026.014-.055.022-.084.022s-.058-.007-.084-.022a1.007 1.007 0 0 0-.413-.276c-.028 0-.028-.113-.05-.171s-.061-.064-.091 0c-.091.146-.234.075-.358.091-.146.257-.276-.077-.411-.019a.375.375 0 0 1-.05-.105c-.019-.083 0-.196-.05-.24s-.163-.019-.245-.033c-.083-.014-.118-.05-.044-.133h.253c.017 0 .047-.022.047-.033a.13.13 0 0 0-.019-.086.4.4 0 0 0-.132-.13c-.027-.01-.056-.014-.085-.01s-.056.014-.08.03c-.036.033-.036.108-.041.166-.014.13.088.033.058.064a1.626 1.626 0 0 1-.636-.367c-.116-.116-.182-.315-.405-.301-.022 0-.074-.058-.072-.088.03-.378-.295-.497-.499-.701-.215-.033-.322-.207-.427-.362-.3-.431-.295-.433-.67-.635s-.333-.21-.551-.552c-.118-.174-.105-.254.028-.378.022-.022-.019-.116-.033-.174l-.094.044a.278.278 0 0 1-.088.03c-.085-.138-.276-.091-.377-.226s-.24-.246-.196-.453a.642.642 0 0 0 0-.262c0-.064-.052-.088-.127-.028s-.118.077-.135-.061c0-.083.05-.21-.05-.237s-.218-.066-.237-.232c0-.086-.204-.157-.204-.237s.124-.193-.03-.276c-.039-.019-.063-.061-.096-.091s-.041-.036-.041-.047c0-.061.03-.119.047-.179a.337.337 0 0 1 .094.061c.036.052.072.066.094.017a.323.323 0 0 0-.083-.403 2.703 2.703 0 0 0-.57-.221c-.121-.022-.143-.11-.072-.24.022-.041.146-.064.041-.138-.03-.022-.085 0-.121-.022a.297.297 0 0 1-.083-.075c.049-.043.095-.09.138-.141.041-.055.058-.055.096 0s.176.135.154.276a.272.272 0 0 0 0 .133c0 .028.047.05.077.069a.094.094 0 0 0 .044-.044c.019-.058.033-.119.047-.179s.138-.052.044-.141-.237-.191-.24-.364c0-.017-.072-.05-.105-.047-.179.019-.292 0-.276-.237 0-.088-.127-.191-.116-.276s-.187-.155-.094-.254c.041-.047.163-.025.245-.033.019 0 .047 0 .055-.022a.222.222 0 0 0 .044-.113c0-.036-.025-.105-.044-.108-.129-.014-.259 0-.388-.025-.033 0-.085-.047-.088-.075v-.464c0-.155-.094-.116-.179-.124-.028 0-.047-.052-.069-.08.187-.124.094-.315.118-.48a.519.519 0 0 0-.21-.511c-.113-.091-.052-.179.025-.276s.077-.157 0-.221a.549.549 0 0 1-.22-.508.579.579 0 0 0-.124-.552c-.017-.014 0-.099.019-.116.132-.094.019-.149 0-.24a.483.483 0 0 1 .154-.585c.149-.094.08-.191 0-.32a.44.44 0 0 1 .022-.483c.039-.058.061-.086 0-.144a.307.307 0 0 1-.033-.356c.022-.058.088-.102.096-.157.025-.171-.025-.378.055-.505s.044-.295.085-.431c.041-.135.168-.276.132-.478a2.367 2.367 0 0 1 0-.461.139.139 0 0 1 .052-.108c.163-.099 0-.306.138-.409s.107-.221.174-.329a.8.8 0 0 0 .165-.591.333.333 0 0 1 .121-.351c.022-.014 0-.135-.036-.168-.094-.08-.069-.124 0-.193s-.044-.293.099-.345a.727.727 0 0 0 .276-.149c.063-.061.044-.097 0-.144a.869.869 0 0 1-.182-.191c-.022-.039.017-.116.036-.174 0-.014.033-.017.052-.025.493-.235.51-.226.686-.638.046-.094.106-.18.176-.257.006-.006.013-.011.021-.014s.017-.004.026-.002.044.028.044.044c.014.215.058.439-.174.588a.243.243 0 0 0-.08.163c0 .08-.041.188.055.237a.17.17 0 0 0 .223-.075c.036-.058.074-.063.091 0s.055.204.017.248a.586.586 0 0 0-.124.48c0 .108-.091.141-.121.215s.017.116.028.177a.366.366 0 0 0 .094-.044c.083-.072.161-.15.231-.235.04-.071.072-.146.096-.224.276.033.187-.166.201-.304 0-.01.002-.02.006-.029s.011-.017.019-.023a.285.285 0 0 1 .113-.041c.08 0 .138.041.121.108s-.091.185-.124.276c0 .03.022.077.036.116l.094-.041.094-.039c0 .039.044.086.033.116a.301.301 0 0 1-.256.248c-.11 0-.14.094-.207.144s-.052.121.022.124c.289 0 .127.108.052.207-.022.025 0 .086 0 .127s.069.066.14 0c.116-.121.276-.218.276-.414 0-.014.033-.036.044-.033s.02.009.028.017a.08.08 0 0 1 .018.027c0 .108 0 .218.019.323.016.052.042.1.074.144a.358.358 0 0 0 .052-.11v-.53c0-.177-.036-.124.096-.378zm1.455 16.565c.036-.014.099-.022.105-.044.017-.08-.041-.094-.165-.088h.058a.067.067 0 0 0 0-.056c-.03-.044-.069-.097-.116-.019 0 0 .039.052.118.077v.196-.055a.06.06 0 0 0-.029-.008.06.06 0 0 0-.029.008c-.041.03-.096.066-.017.113.008 0 .047-.044.074-.124zm6.612-4.108c0 .092.044.136.132.133.028.044.047.11.085.127s.118 0 .43.083c0-.014 0-.039-.019-.041l-.171-.036c-.063-.017-.085 0-.061.061.007.019.02.035.039.044.091.047.198.03-.039-.105-.03-.044-.05-.11-.088-.127a.473.473 0 0 0-.176 0c0-.091-.041-.135-.193-.133h.058a.067.067 0 0 0 0-.056c-.03-.044-.069-.097-.116-.019-.005.003.039.044.118.069zm16.738-1.181a.454.454 0 0 0-.074.064.067.067 0 0 0 0 .056c.008.005.018.008.028.008s.019-.003.028-.008a.217.217 0 0 0 .061-.077s-.025-.025-.116.138v-.055a.06.06 0 0 0-.029-.008.06.06 0 0 0-.029.008c-.041.03-.096.066-.017.113.008.008.047-.036.149-.237zm-26.656-4.65v.389a1.037 1.037 0 0 1 0-.193c0-.064 0-.083-.066-.064s-.135 0-.168.047a.23.23 0 0 0-.027.174c.019.108-.088.276.11.306.124.025.149-.028.152-.527.036-.014.099-.022.105-.044.017-.08-.041-.094-.165-.088h.058a.067.067 0 0 0 0-.056c-.03-.044-.069-.097-.116-.019-.006.008.039.05.118.075zm.253-.32a.467.467 0 0 0-.066-.075c-.008-.005-.018-.008-.028-.008s-.019.003-.028.008a.067.067 0 0 0 0 .056.305.305 0 0 0 .077.061s.028-.025-.077-.119c.003-.018.002-.037-.003-.055s-.015-.034-.028-.047-.029-.023-.047-.028a.124.124 0 0 0-.054-.003c0-.105.025-.221-.091-.276-.052-.03-.047-.052 0-.094.165-.124-.025-.16-.069-.226s-.05-.052-.11.11c-.025.066-.052.119-.193.102h.058a.067.067 0 0 0 0-.056c-.03-.044-.069-.097-.116-.019 0 0 .039.052.118.077v.378c0 .127.094.177.165.243.072.066.094-.022.096-.066 0-.088.019-.166.138-.157-.003.075.041.119.256.193zM29.47 9.6a.467.467 0 0 0-.066-.075c-.008-.005-.018-.008-.028-.008s-.019.003-.028.008a.067.067 0 0 0 0 .056.35.35 0 0 0 .077.061s.028-.025-.077-.119c0-.091-.041-.135-.193-.133h.058a.067.067 0 0 0 0-.056c-.03-.044-.069-.097-.116-.019 0 0 .039.052.118.077v.213-.077c0-.011-.039 0-.061 0-.176 0-.201 0-.201.146 0 .033.03.069.05.102a.072.072 0 0 0 .041 0 .592.592 0 0 0 .174-.237.523.523 0 0 1 .251.061zm-6.745 0a.467.467 0 0 0-.066-.075c-.008-.005-.018-.008-.028-.008s-.019.003-.028.008a.067.067 0 0 0 0 .056.376.376 0 0 0 .077.061s.028-.025-.138-.119h.058a.067.067 0 0 0 0-.056c-.03-.044-.069-.097-.116-.019-.006.008.039.05.24.152zm-2.256-1.722a.421.421 0 0 0-.066-.074c-.008-.005-.018-.008-.028-.008s-.019.003-.028.008a.067.067 0 0 0 0 .056.324.324 0 0 0 .077.061s.028-.025-.138-.119h.058a.067.067 0 0 0 0-.056c-.03-.044-.069-.097-.116-.019.003.008.047.05.24.152zM18.485 6.42a.467.467 0 0 0-.066-.075c-.008-.005-.018-.008-.028-.008s-.019.003-.028.008a.067.067 0 0 0 0 .056.345.345 0 0 0 .077.061s.028-.025-.138-.119h.058a.067.067 0 0 0 0-.056c-.03-.044-.069-.097-.116-.019.003-.003.047.05.248.152h-.008zm8.417-.729a.374.374 0 0 0-.074.064v.058c0 .019.044 0 .055 0a.217.217 0 0 0 .061-.077s-.025-.025-.116.138v-.055a.06.06 0 0 0-.029-.008.06.06 0 0 0-.029.008c-.041.03-.096.066-.017.113.017.006.052-.039.157-.24h-.008zm-.331-.806c0 .092.044.136.132.133a.324.324 0 0 1-.301.276c-.016 0-.031.003-.046.01s-.026.017-.036.03c-.009.013-.016.027-.018.043s-.001.032.003.047c-.094 0-.138.044-.132.133-.242-.033-.298.025-.276.276-.063-.014-.122-.043-.17-.087s-.085-.098-.106-.159c-.074-.149-.118-.168-.276-.152-.083 0-.165.133-.11.185a.42.42 0 0 1 .129.403v-.058h-.061c-.014 0-.096.066-.017.113 0 0 .05-.036.077-.116h.435a.098.098 0 0 0 .078-.042.105.105 0 0 0 .016-.088c.105 0 .215-.022.292.091.019.028.072.03.113.041s.052 0 .061 0c.008 0 .039-.069.028-.088-.066-.108-.22-.149-.229-.301.018.004.037.003.054-.003s.034-.015.047-.028.023-.029.028-.047a.127.127 0 0 0 .003-.055c.174 0 .099.149.154.218a.154.154 0 0 0 .11.044c.036 0 .105-.028.105-.041 0-.193.113-.345.154-.519 0-.058-.047-.113-.127-.099 0-.091-.041-.135-.193-.133h.061v-.058c0-.014-.069-.097-.116-.019.006-.017.05.025.13.05zm-19.98.872a.467.467 0 0 0-.066-.075c-.008-.005-.018-.008-.028-.008s-.019.003-.028.008a.067.067 0 0 0 0 .056.305.305 0 0 0 .077.061s.028-.025-.138-.119a.142.142 0 0 0 .058 0 .818.818 0 0 0 0-.185c0-.025-.047-.047-.074-.066s-.036.025-.041.041c-.028.08-.028.157.24.287zm2.391 8.333c.019-.061 0-.083-.063-.061a.109.109 0 0 0-.044.041.28.28 0 0 0-.022.11c.01.037.027.071.05.102.028-.022.066-.041.074-.069a2.15 2.15 0 0 1 .08-.306.454.454 0 0 0-.074.064.067.067 0 0 0 0 .056c.008.005.018.008.028.008s.019-.003.028-.008a.217.217 0 0 0 .061-.077s-.025-.025-.116.141zm-5.871 9.878h.058a.067.067 0 0 0 0-.056c-.03-.044-.069-.097-.116-.019 0 0 .039.052.251.232a.172.172 0 0 0 0-.064c-.019-.033-.041-.083-.069-.088-.124-.019-.058.083-.055.121s.044.086.072.13c.006-.036.025-.069-.141-.257zM6.478 8.921c.019-.061 0-.083-.063-.061a.109.109 0 0 0-.044.041.277.277 0 0 0-.022.11c.01.037.027.071.05.102.028-.022.066-.041.074-.069a2.15 2.15 0 0 1 .08-.306.454.454 0 0 0-.074.064.067.067 0 0 0 0 .056c.008.005.018.008.028.008s.019-.003.028-.008a.217.217 0 0 0 .061-.077s-.033-.03-.124.141h.008zm18.578 2.866h.058a.067.067 0 0 0 0-.056c-.03-.044-.069-.097-.116-.019 0 0 .039.052.383.276-.069-.066-.135-.135-.207-.196a.06.06 0 0 0-.029-.008.06.06 0 0 0-.029.008v.058c0 .174.074.251.201.199.019-.022.03-.044-.262-.262zM1.444 13.444v-.058a.364.364 0 0 0-.105-.041c-.047-.014-.058-.138-.127-.052a.173.173 0 0 0-.014.163c.025.039.099.052.154.055s.061-.041.237-.392c-.132 0-.146.025-.146.204v.058c.009.005.019.007.029.007s.02-.003.029-.007c.063-.055.121-.113.176-.171a.058.058 0 0 0 0-.041c-.022-.033-.058-.05-.22.26l-.014.017zm11.627 9.425a.467.467 0 0 0-.066-.075c-.008-.005-.018-.008-.028-.008s-.019.003-.028.008a.067.067 0 0 0 0 .056.324.324 0 0 0 .077.061s.028-.025-.276-.119a.45.45 0 0 1 .127 0c.063.014.085 0 .061-.066 0-.017-.025-.041-.041-.041-.099 0-.198-.014-.298-.014-.017 0-.044.039-.044.041s.041.064.072.075c.03.011.091-.011.444.066v.017zM26.486 6.227c-.124 0-.196.03-.176.138 0 .044-.066.13.058.13s.22-.039.198-.152c0-.047-.058-.088-.259.21.019-.061 0-.083-.063-.061a.109.109 0 0 0-.044.041.277.277 0 0 0-.022.11c.01.037.027.071.05.102.028-.022.066-.041.074-.069a1.92 1.92 0 0 1 .185-.467v.017zM9.643 4.371c.014-.036.03-.072.041-.11s.146-.061.041-.13a.185.185 0 0 0-.166 0c-.069.072-.19.11-.182.24a.295.295 0 0 0-.322.124c-.226-.028-.218.124-.207.276h-.394a.169.169 0 0 1-.113-.044c-.066-.064-.138-.133-.152.025s0 .251-.124.348c-.124.097-.201.276-.331.309-.231.064-.333.257-.499.381a.28.28 0 0 0-.11.276c0 .102-.033.146-.143.166a.27.27 0 0 0-.195.144 1.544 1.544 0 0 1-.422.552c-.11.121-.405.102-.3.392 0 .025-.033.077-.063.102a.73.73 0 0 0-.237.362.332.332 0 0 1-.19.163c-.08.028-.176 0-.091-.248a.454.454 0 0 0-.074.064.067.067 0 0 0 0 .056c.008.005.018.008.028.008s.019-.003.028-.008a.217.217 0 0 0 .061-.077s-.025-.025-.116.08c-.039.014-.088.019-.107.044-.066.091-.118.091-.185 0-.019-.025-.069-.03-.105-.044v-.276c.08.017.118-.036.13-.102.025-.163-.069-.351.113-.478a.219.219 0 0 0-.055-.088c-.077-.064-.03-.11.028-.121a.768.768 0 0 1 .262 0c.132.019.185-.083.276-.149s-.016-.094-.036-.138c-.019-.044-.03-.075-.044-.113.036 0 .088-.019.107-.047.102-.152-.102-.213-.107-.329s-.044-.135-.146-.163a.923.923 0 0 1-.262-.185c.165-.144.276-.334.507-.381a.222.222 0 0 0 0-.168c-.022-.055-.094-.088-.132-.141s-.055-.05-.096 0a.788.788 0 0 0-.163.276c-.025.086-.196.121-.276.196s-.127.229-.05.4c.019.044.132.061.036.141s-.091.213.016.32a.173.173 0 0 1 .013.171c-.08.103-.172.196-.276.276-.143.105-.016.152.019.237s0 .218.017.323c.033.097.076.189.13.276-.015-.004-.032-.005-.047-.002s-.03.01-.043.019-.023.022-.03.036a.104.104 0 0 0-.011.046c0 .091 0 .177.132.166 0 .237 0 .237.226.276.041 0 .091 0 .118.022a.15.15 0 0 1 .046.108c0 .036-.017.102-.039.108a2.577 2.577 0 0 1-.248.028c-.116.019-.141.116-.063.24l.091.157h-.262c-.138 0-.135 0-.069.135a.948.948 0 0 1 .063.171c0 .014-.016.036-.028.052s-.055.036-.094-.014c-.039-.05-.08-.105-.135-.019s-.154.094-.138.276c.019-.061 0-.083-.063-.061a.109.109 0 0 0-.044.041.277.277 0 0 0-.022.11c.01.037.027.071.05.102.028-.022.066-.041.074-.069a.716.716 0 0 0 0-.185c.215 0 .077.276.251.326.014 0 .019.083 0 .121s-.05.044-.077.066c-.08-.116-.138-.097-.24 0a.552.552 0 0 0-.209.511v.199a.315.315 0 0 1-.163.329c-.143.105-.052.166.025.237v.063a.327.327 0 0 1-.137.343c-.157.099-.149.251-.113.403.014.063.055.061.091.017.105-.138.207-.127.322 0 .066.075.152.058.223-.017s.154-.138.146-.276a6.975 6.975 0 0 1 0-.792c0-.077.085-.061.13 0s.113.039.124-.025c.019-.124-.025-.257.107-.356.044-.198.055-.403.03-.605 0-.105-.025-.21.08-.298s.218-.155.193-.318c0-.017.066-.058.102-.058.107 0 .157-.044.154-.155a.4.4 0 0 1 .017-.191c.05-.097.157-.039.237-.055s.11-.025.11-.041c0-.135.152-.218.154-.331a.475.475 0 0 1 .176-.394c.085-.069.149-.166.237-.229a.356.356 0 0 0 .126-.348c0-.133-.025-.276.19-.257.025 0 .052-.144.096-.207s.218-.017.276-.141c.025-.058.099-.11.094-.157a.86.86 0 0 0-.113-.232l.455-.447c.014-.017.033-.03.044-.047.058-.083.14-.083.231-.086.062 0 .122-.02.171-.058.179-.166.347-.34.515-.514 0 0-.019-.069-.044-.091-.074-.061-.041-.121.022-.124a.333.333 0 0 0 .314-.276.3.3 0 0 0 .32-.124c.226.028.218-.124.209-.276a.275.275 0 0 1 .276.127.844.844 0 0 0 0 .188c0 .03.05.077.077.077a.294.294 0 0 0 .165-.05c.022 0 .028-.083 0-.113a.46.46 0 0 0-.259-.229l.017-.019zm7.214 1.06h.061v-.058c0-.014-.069-.097-.116-.019 0 0 .039.052.118.276v.127c0 .083-.017.171.083.21.019.009.04.013.061.013s.042-.005.061-.013c.116-.097-.044-.116-.055-.177s0-.166-.019-.248a.155.155 0 0 0-.066-.094c-.058-.03-.077 0-.063.061s-.003.055-.063-.094v.017zM9.511 25.586l.276-.133c.033-.017.099-.022.105-.044.017-.08-.047-.075-.105-.091s-.176-.086-.609.121l.047-.019c.105-.069.146-.221.295-.235a.106.106 0 0 0 0-.061c0-.019-.028-.044-.044-.047a.86.86 0 0 0-.253-.019c-.064.014-.131.005-.19-.025s-.103-.082-.127-.143c-.102-.306-.377-.456-.551-.685a.238.238 0 0 0-.232-.077c-.143.017-.187-.052-.185-.188 0-.025-.096-.064-.152-.072a.13.13 0 0 0-.1.058.275.275 0 0 0 .039.177c.132.146.276.276.413.42.292-.019.193.353.411.409.149.215.433.26.592.464.014.017.03.03.391-.207v.456-.055a.06.06 0 0 0-.029-.008.06.06 0 0 0-.029.008c-.041.03-.096.066-.017.113-.011-.019.025-.064.052-.144v.028zM4.552 5.708h.058a.067.067 0 0 0 0-.056c-.03-.044-.069-.097-.116-.019 0 0 .039.052.251.251 0-.044 0-.088-.022-.127-.004-.01-.01-.02-.018-.027s-.018-.013-.028-.017a.167.167 0 0 0-.063 0c.066.171-.127.26-.13.406 0 .036.03.074.05.11a.116.116 0 0 0 .044-.019c.094-.127.22-.199-.019-.53l-.006.028zM.907 15.459a3.009 3.009 0 0 0 0 .329c0 .033.044.061.069.091l.044-.047c.066-.058.061-.058.017-.276a.958.958 0 0 1 0-.262c0-.066 0-.091-.066-.064-.011.003-.02.009-.028.017s-.014.017-.018.027c0 .086-.019.168.16-.312a.183.183 0 0 0-.066 0 .526.526 0 0 0-.107.058c.041.044.11.088.118.141s0 .097.072.061a.548.548 0 0 0 .138-.138.148.148 0 0 0 .025-.091s-.03-.03-.05-.03-.074-.005-.306.497zm28.103.16h.058a.067.067 0 0 0 0-.056c-.03-.044-.069-.097-.116-.019l.383.519c0-.041 0-.108-.019-.121-.127-.072-.083-.237-.182-.318h-.063c.019.108-.096.13-.127.204.132.064.096.229.185.315a.148.148 0 0 0 .124 0c.047-.011.069-.055-.229-.525h-.014zm.325-.143a1.037 1.037 0 0 0 0 .193c0 .028.047.05.074.069a.082.082 0 0 0 .041-.041 1.264 1.264 0 0 0 0-.246c-.003-.02-.01-.039-.022-.055s-.027-.03-.045-.039c-.127-.019-.03.086-.132 0 .072.025.052-.022.077-.058.176-.276.176-.353 0-.552-.072-.072-.099-.028-.127.028s-.025.127-.061.168-.105.144-.055.224c.05.08.132.127.262.309h-.014zm-4.351-6.45a.172.172 0 0 0 0-.064c-.019-.033-.041-.083-.069-.088-.124-.019-.058.083-.055.121s.044.086.072.13c.017-.033.036-.066-.077-.45a.726.726 0 0 0 0-.066.128.128 0 0 0-.163-.132c-.099.033-.187.202-.276 0-.025.025-.072.052-.072.08a.334.334 0 0 0 .276.307.662.662 0 0 0 .063 0c.171.008.171.008.3.163zM6.591 22.058a.467.467 0 0 0-.066-.075c-.008-.005-.018-.008-.028-.008s-.019.003-.028.008a.067.067 0 0 0 0 .056.305.305 0 0 0 .077.061s.028-.025-.468-.519c-.025.486.047.387.325.4h.063c.011 0 0-.039 0-.061a.397.397 0 0 0-.229-.461c-.029-.004-.058-.001-.086.009s-.052.027-.071.049c-.025.044-.005.121.51.541zm23.143-5.023c0 .091.017.177.028.26.004.011.011.02.019.028s.018.014.028.019c.063.025.083 0 .066-.066s-.019-.113 0-.127c.168-.11.091-.191-.017-.276-.044-.041-.072-.064-.091 0s-.025.124.237.787a1.07 1.07 0 0 0 0-.196.154.154 0 0 0-.063-.099c-.061-.033-.052 0-.072.058s-.118.124-.176.191c-.138.157-.11.329.063.494.044.044.061.058.094 0s.127-.124.152-.199.008-.179-.265-.875l-.003.003zm-26.37-3.006h.061v-.058c0-.014-.069-.097-.116-.019 0 0 .039.052.262.503-.017-.168-.022-.276-.036-.378 0-.017-.025-.039-.044-.044-.063-.028-.05.03-.072.058-.107.121-.215.226-.03.367a.15.15 0 0 1 .028.047c-.218.099-.03.384-.226.494 0 0 .017.077.039.086.04.016.084.016.124 0a.185.185 0 0 0 .072-.097c.069-.191.204-.37-.058-.958h-.003zm.855-1.59c-.03-.044-.05-.11-.088-.127a.793.793 0 0 0-.248 0c.13 0 .061-.083.066-.127.019-.108-.05-.141-.146-.138-.015-.001-.03.002-.045.007a.107.107 0 0 0-.063.061.11.11 0 0 0-.008.044c0 .119.05.16.276.152-.017.039-.025.102-.05.108-.08.019-.168 0-.251.028a.106.106 0 0 0-.082.043c-.009.013-.015.028-.018.044s-.002.032.003.047c0 .039.039.108.047.105.168-.033.234.168.4.16a.325.325 0 0 0 .341-.301.1.1 0 0 0-.14-.108h.006zm-1.177 5.422c-.017-.075 0-.202-.052-.224a.655.655 0 0 0-.298-.03.138.138 0 0 0-.028.083.302.302 0 0 1 .105.213c0 .108.116.088.196.094.13 0 .033-.091.719.34 0-.149.039-.309-.124-.406v-.525c0-.052-.08-.099-.13-.141s-.061-.025-.091-.039c0 .039-.044.086-.033.116s.077.102.094.157a.95.95 0 0 1 .033.248c0 .127-.102.108-.187.119-.036 0-.063.052-.096.08l-.11.113a.278.278 0 0 0 .275.119.21.21 0 0 0 .047-.047c.074.072.141.151.198.237.017.03-.044.105-.066.163s-.03.086-.022.088a.216.216 0 0 0 .113.033c.039 0 .099-.033.102-.058.006-.075-.003-.163-.645-.734zm10.745 10.337a1.091 1.091 0 0 0-.198 0c-.036 0-.069.041-.102.064.03.033.063.061.091.094a.25.25 0 0 0 .223.107.261.261 0 0 1 .179.036c.072.069.113.105.193 0s.204-.028.306-.044c.141.213.355.102.551.13a.219.219 0 0 0 .221-.102.511.511 0 0 1 .317-.191c.055 0 .094-.091.143-.135s.033-.069-.025-.091c-.058-.022-.138-.014-.174-.052-.113-.121-.207-.13-.322 0s-.207.025-.309.036c-.11-.185-.193-.072-.276.025s-.085.091-.204.019c-.066-.039-.074-.041-.102.077 0 .061-.058.152-.077.13-.141-.135-.298-.083-.444-.091l.008-.011zm15.967-9.277h-.066c-.176-.127-.193-.13-.196.047a.322.322 0 0 1-.292.351c-.163.033-.083.094-.019.157s.036.207.039.309c-.003.043.005.085.022.125s.042.074.075.102c.026.032.04.072.039.113 0 .127-.182.182-.152.334a.737.737 0 0 0-.163.058.229.229 0 0 0-.077.152c0 .069.041.113.124.11.039 0 .105.019.107.041a.578.578 0 0 1-.038.486h-.124a.142.142 0 0 0 .058 0 .817.817 0 0 0 0-.185c0-.025-.047-.047-.074-.066s-.036.025-.041.041c-.025.08-.025.157.121.21 0 .108.025.221-.091.29-.052.03-.05.064 0 .091.018.01.038.016.058.017.154-.03.3-.155.276-.276a1.03 1.03 0 0 1 .165-.588c.044-.094.118-.166.107-.276a.378.378 0 0 1 .108-.351c.085-.08-.039-.257.094-.351.083-.055.028-.097-.017-.138-.099-.102-.066-.193.03-.276.052-.041.055-.058 0-.097-.152-.11-.069-.276 0-.674-.017 0-.041 0-.044.022 0 .055-.019.113-.036.171s0 .083.063.061a.109.109 0 0 0 .044-.041c.041-.091.025-.202-.107.041l.008-.011zM5.549 11.033c.022.069-.019.052-.061.077-.107.063-.058.243-.187.309.069.138-.276.276-.017.411-.077.088-.242.218.044.191.143-.014.242.168.314.094a.551.551 0 0 0 .16-.318c-.014-.243.22-.42.146-.668-.03-.099.066-.146.116-.215s.146-.069.226-.094c.025 0 .044-.066.052-.105s-.025-.119-.091-.144h-.066a1.122 1.122 0 0 1-.105-.063c.033-.022.069-.069.099-.066.135 0 .179-.102.262-.166.039-.03.036-.077-.022-.088-.143-.028-.306.019-.408-.138-.014-.019-.163.017-.165.036-.025.218-.207.315-.331.453s-.135.248 0 .45a.227.227 0 0 0 .025.055l.008-.011zm17.454-.662a1.372 1.372 0 0 1-.141-.144c-.039-.052-.061-.058-.094-.014s-.061.088-.094.088c-.107 0-.085.124-.154.171s-.063.146 0 .218c.029.024.053.054.07.088s.027.071.03.108a.277.277 0 0 1-.075.207c-.025.033-.072.066-.072.099a.31.31 0 0 0 .063.168c.039.044.19-.019.193-.091 0-.155.077-.182.204-.174 0 0 .044-.066.033-.086s-.058-.063-.088-.094c-.196-.213-.196-.213 0-.411.041-.047.085-.091-.276-.199 0-.119-.058-.276.168-.276.028 0 .058-.047.088-.072a.434.434 0 0 0-.107-.055.486.486 0 0 0-.132 0 .276.276 0 0 1-.276-.23c0-.121-.276-.229-.028-.364a.213.213 0 0 0-.028-.168 1.291 1.291 0 0 0-.328-.323c-.16-.088-.088-.337-.295-.373s-.229-.188-.344-.276c-.201-.16-.328-.409-.639-.513h.058a.067.067 0 0 0 0-.056c-.03-.044-.069-.097-.116-.019 0 0 .039.052.118.077v.193c0 .119 0 .213.16.207a.097.097 0 0 1 .085.035c.01.012.017.027.021.042s.003.032-.001.047c-.014.135.174.177.143.334 0 .05.127.11.165.185.102.193.276.367.223.618 0 .064 0 .13.276 1.052-.019-.058-.019-.138-.058-.168a.553.553 0 0 1-.221-.552.472.472 0 0 0 0-.13h-.063c-.143-.03-.383.179-.328.301.062.124.131.245.207.362.187-.022.24.155.358.235.017 0 .061-.022-.171-.897a.319.319 0 0 1 .215.127.33.33 0 0 1 .061.243c0 .097.019.166.138.163.036 0 .105.03.105.047 0 .213.127.232.292.218.216-.001.432.019.645.061l.008-.011zM1.772 19.062a9.94 9.94 0 0 0-.22-.237c-.135-.146-.138-.232-.014-.453 0-.017.036-.028.044-.047a.14.14 0 0 0-.042-.175.131.131 0 0 0-.06-.024h-.331c-.077 0-.129.121-.088.204a.907.907 0 0 0 .113.141c-.11.075-.121.144 0 .235.112.07.206.164.276.276a1.06 1.06 0 0 1 0 .389v.398c0 .025.058.058.094.069a.417.417 0 0 0 .132 0c.157 0 .218.119.298.215s-.066.232-.196.309c-.033.019-.094 0-.129 0-.018.01-.034.024-.047.041s-.021.037-.025.057a.149.149 0 0 0 .028.12.62.62 0 0 0 .193.171c.088.041.16-.03.218-.099.014-.014.041-.03.052-.025l.342.13a.132.132 0 0 1 .1.143c0 .02.005.041.014.059s.022.034.039.046c.018.011.039.018.06.021s.043 0 .063-.007c.061-.022.105-.066.022-.124s-.069-.149-.072-.235c-.003-.086.019-.204-.025-.248-.193-.191-.102-.417-.094-.621 0-.102.152-.196.121-.342a.364.364 0 0 1 .174-.39.232.232 0 0 0 .091-.226v-.276c0-.017-.036-.047-.044-.044s-.072.036-.08.061a.739.739 0 0 0 0 .133.554.554 0 0 1-.402.447.406.406 0 0 1-.196 0c-.014 0-.039-.077-.028-.086a.306.306 0 0 0 .099-.228.31.31 0 0 0-.099-.228c-.072-.11-.08-.135 0-.221.121-.127.105-.215 0-.326-.069-.069-.047-.155.025-.224a.204.204 0 0 0 .05-.088.906.906 0 0 1-.276-.414c0-.019-.116-.025-.171-.014s-.061.055 0 .091a.506.506 0 0 1 .085.094.869.869 0 0 1-.107.061c-.16.058-.16.058-.047.171.072.075.072.075.185 0l.047-.03a.432.432 0 0 1 .058.108c.022.105-.063.163-.129.207-.185.124-.124.306-.135.475s.171.088.223.163a.188.188 0 0 1 .028.171c-.062.09-.137.17-.223.237l.008-.011zm7.108-5.309c.019 0 .047 0 .058-.017.08-.097.212-.152.187-.32a1.513 1.513 0 0 1 0-.392c0-.105-.063-.232.044-.306s.052-.251.179-.329c.017-.024.028-.052.031-.082s-.001-.059-.012-.087a.487.487 0 0 1 0-.636.366.366 0 0 0 .025-.248c-.019-.099-.201-.188 0-.29-.028-.028-.052-.072-.08-.075a.308.308 0 0 0-.301.276.704.704 0 0 1-.13.345c-.058.097.036.262-.11.348 0 .276-.215.5-.168.787.006.109.006.219 0 .329 0 .099-.058.149-.105.221a.185.185 0 0 0 0 .172c.104.11.215.214.331.312 0 0 .019.003.041.003l.008-.011zm10.732 13.224c.248.039.446-.019.551.157a.856.856 0 0 1 .094-.086c.102-.064.11-.061.226 0s.135.08.149-.039c.03-.276.03-.276.223-.276.065.004.131.004.196 0 .039 0 .105-.047.102-.061-.047-.188.069-.323.138-.475.005-.009.007-.02.007-.03s-.003-.021-.007-.03c-.025-.017-.077-.039-.088-.028-.138.138-.276.29-.499.229-.099.163-.256.144-.408.13a.278.278 0 0 0-.224.102c-.141.124-.273.243-.468.417l.008-.011zM9.142 6.547c-.047 0-.044-.138-.138-.041-.176.179-.328.406-.634.375a.185.185 0 0 0-.041.108c0 .039.019.102.044.108.146.041.295.064.402-.094s.171-.185.276-.019c.017.025.154.039.165-.041a.547.547 0 0 1 .19-.317 2.31 2.31 0 0 0 .229-.235.123.123 0 0 0 0-.124c-.044-.039-.127-.083-.163-.066a.382.382 0 0 0-.248.339c.003.075-.052.077-.088.025l.005-.017zm-6.802 4.5c-.061-.116-.094-.257-.182-.32a.24.24 0 0 0-.298.036c-.077.102-.116.05-.187 0a.142.142 0 0 0-.115-.042.145.145 0 0 0-.106.062.153.153 0 0 0 .031.17.143.143 0 0 0 .05.034c.085.017.152 0 .182.127a.692.692 0 0 0 .372.406.097.097 0 0 0 .063 0 .096.096 0 0 0 .052-.033c.083-.144-.047-.356.138-.439zm24.628.505c0-.124.036-.26-.107-.348a.872.872 0 0 1-.276-.469.654.654 0 0 0-.231-.276c-.025-.019-.085 0-.121 0s-.061.058-.019.091c.041.033.091.063.085.088-.036.224.091.353.229.497s.317.226.325.45c0 0 .028.03.044.044l.072-.077zm-3.485 1.53c.061-.03.047-.05 0-.097-.099-.102-.22-.177-.245-.353 0-.097-.237-.052-.3-.185-.061.072-.179.152-.171.213.039.112.098.217.174.309.163-.036.215.113.309.188s.171.025.234-.075zM20.62 18.88a.424.424 0 0 0 0-.133.14.14 0 0 0-.08-.085c-.157-.041-.529.113-.568.276s-.091.121-.179.133c-.033 0-.058.047-.088.072.033.025.07.044.11.055h.262c.086 0 .141-.05.154-.155.019-.16.08-.075.154-.022.141.102.231.05.234-.133v-.008zM17.807 4.744a.227.227 0 0 0-.055.025c-.083.066-.028.16-.041.237a.104.104 0 0 0 .051.121c.014.008.03.011.046.011.124 0 .276-.028.342.113.105-.047.212-.086.311-.138.025-.014.036-.072.041-.11a.098.098 0 0 0-.02-.089.097.097 0 0 0-.085-.035c-.182 0-.383.041-.526-.133-.008-.003-.041.006-.063.006v-.008zm.276.748v-.044a1.84 1.84 0 0 0-.38-.168 2.487 2.487 0 0 0-.386 0c-.015-.002-.031-.001-.046.003s-.029.011-.041.021a.112.112 0 0 0-.041.081.19.19 0 0 0 .022.119c.102.146.331.26.433.166a.551.551 0 0 1 .405-.127c.011 0 .025-.028.041-.041l-.006-.008zm3.694.936a.538.538 0 0 0-.174-.218c-.099.16-.275.108-.405.138-.058 0-.055.052-.022.088.154.177.413.213.551.414.008.006.018.01.028.013s.02.003.03.001c.039 0 .102 0 .113-.033a.47.47 0 0 0 .028-.174c0-.017-.025-.039-.044-.047-.083-.025-.311.033-.099-.174l-.006-.008zM5.728 20.509h.193c.124 0 .146-.039.146-.215v-.064c0-.021-.005-.041-.015-.06s-.024-.034-.042-.045c-.017-.012-.037-.018-.058-.02s-.042.001-.061.01c-.099.064-.182.179-.276 0-.051.03-.095.069-.129.117s-.059.102-.072.159c0 .036.036.094.063.097.084.019.17.031.256.036l-.005-.014zm18.061-11.53h.325c.116-.075.069-.191.069-.29s-.044-.105-.121-.11-.132.105-.207.133c-.074.028-.212-.044-.306.044a.71.71 0 0 0-.088.094.217.217 0 0 0-.039.091s.03.036.047.036c.11.019.218.017.325.017l-.006-.014zm2.314 15.24c.063.004.127.004.19 0 .039 0 .096-.014.11-.039.061-.124.11-.254.16-.384 0-.017 0-.039-.017-.058s-.058-.058-.091 0c-.023.035-.057.063-.096.078s-.083.019-.124.01c-.179-.019-.276.105-.325.237-.017.036.03.116.066.157s.088.011.132.011l-.006-.014zM9.238 15.558c.096-.248-.215-.42-.135-.671 0 0-.052-.041-.083-.055s-.044.028-.044.044v.53c.253.141-.08.276 0 .422.019.033 0 .086.019.124s.047.047.094 0a.406.406 0 0 0 .154-.381l-.006-.014zm19.105 7.195a.673.673 0 0 0 .091-.077c.14-.225.265-.46.375-.701.014-.022 0-.088-.039-.11-.016-.013-.035-.022-.055-.027s-.041-.005-.061 0a2.926 2.926 0 0 0-.237.207.901.901 0 0 1-.132.605v.058a.193.193 0 0 0 .063.061l-.006-.014zm-2.799 1.182c.017 0 .039.025.047.019.121-.08.185-.21.35-.276s.055-.301.107-.453c0-.036.055-.064.088-.091s.039-.069-.019-.094a.218.218 0 0 0-.124 0c-.036.014-.085.064-.08.086.05.204-.072.32-.201.444a1.292 1.292 0 0 0-.196.246c-.014.028.017.08.028.119zM1.458 17.731c.05-.166-.083-.276-.215-.387-.028-.019-.105-.019-.121 0s-.083.133-.063.157c.107.144.124.348.276.461.017 0 .033.033.044.03a.065.065 0 0 0 .044-.041c.014-.061.019-.121.036-.221zm1.05-.814a1.07 1.07 0 0 0 0 .196c.002.016.006.031.014.044s.019.025.031.035c.013.009.027.015.043.018s.031.003.047-.001a.94.94 0 0 1 .13 0c.091 0 .171-.097.13-.166a1.024 1.024 0 0 1-.163-.323c0-.019-.069-.033-.107-.039-.08-.014-.116.036-.124.105a1.12 1.12 0 0 0-.006.13h.006zM28.164 7.35c-.039-.044-.105-.086-.121-.141s0-.174-.017-.26c0-.022-.052-.041-.083-.055s-.044.028-.044.044a1.536 1.536 0 0 0 0 .395c.036.16-.157.207-.138.345a.172.172 0 0 0 0 .064c0 .017.03.03.044.047l.342-.364c.019-.014.011-.055.011-.075h.006zM3.599 13.101h-.066c-.088 0-.163.135-.096.191a.425.425 0 0 1 .13.403s.025.033.044.044a.058.058 0 0 0 .041 0c.044-.177.215-.304.182-.511 0-.077-.039-.113-.105-.127a.61.61 0 0 0-.135 0H3.6zm24.562 7.554c.135 0 .135 0 .069-.133a.957.957 0 0 1-.066-.166c-.047-.16-.096-.052-.16 0s-.245.058-.309.182a.264.264 0 0 0-.03.091s.03.033.047.033c.08-.006.165-.008.251-.008h.198zM21.295 8.979c-.03-.05-.052-.113-.074-.113a.762.762 0 0 0-.3.039 1.067 1.067 0 0 0-.229.221c-.061.061-.058.127 0 .133s.113.017.124 0c.102-.152.251-.127.397-.138.03-.003.055-.094.083-.141zM3.692 21.781a1.837 1.837 0 0 0 0-.257c0-.028-.055-.061-.091-.072a.47.47 0 0 0-.3.196s.028.033.044.044a.277.277 0 0 1 .097.221c0 .028.102.064.157.061.016 0 .031-.003.046-.01s.027-.017.036-.03c.01-.013.016-.027.019-.043s.002-.032-.002-.047a.273.273 0 0 1-.006-.064zm26.315-8.415c0-.108.025-.218-.085-.276-.055-.033-.083-.149-.182-.044-.138.149-.165.218-.08.312a.478.478 0 0 0 .135.13.24.24 0 0 0 .171 0c.025-.028.03-.088.041-.121zm-28.549.508a.364.364 0 0 0 .174.39.181.181 0 0 0 .17 0 .642.642 0 0 0 .179-.188.148.148 0 0 0 0-.124c-.055-.094-.094 0-.138.019-.149.091-.174.077-.251-.113a.474.474 0 0 0-.069-.097l-.066.113zm27.381-4.367c0-.11-.01-.22-.03-.329 0-.03-.108-.041-.165-.047s-.058.075-.055.075c.154.124.152.24 0 .367-.025.019-.028.08-.022.116s.052.116.132.099c.039 0 .099-.022.105-.047.013-.078.021-.156.022-.235h.014zM2.83 11.906c.105-.185.276-.102.433-.152.017 0 .044-.03.044-.044 0-.058 0-.152-.044-.168a.345.345 0 0 0-.296 0 .334.334 0 0 0-.182.234c-.025.03.011.072.033.13h.014zm-.821 9.042-.152.185c.141.094.198.276.394.317.02.006.041.006.061 0a.185.185 0 0 0 .047-.041c-.124-.138-.132-.348-.295-.458-.017-.014-.036-.006-.055-.003zM19.568 5.547a.779.779 0 0 0 .193 0 .112.112 0 0 0 .066-.094c0-.058-.036-.155-.066-.157a1.704 1.704 0 0 0-.391 0c-.025 0-.066.064-.063.094s.028.138.069.16c.041.022.121-.003.187-.003h.006zM1.579 9.322c.099.109.205.213.317.309.033.028.116.017.168 0s.063-.146 0-.215c-.141-.157-.289-.248-.49-.094h.006zm20.113-3.441c-.066-.069-.113-.119-.16-.16s-.096.036-.138.061a.155.155 0 0 1-.119.032.166.166 0 0 1-.107-.063c-.047-.052-.091-.077-.138 0a.243.243 0 0 0 .044.177c.135.05.314-.036.402.138l.215-.185zM10.186 25.788a.495.495 0 0 0-.03-.179c0-.036-.107-.041-.165-.044-.014 0-.05.077-.047.08.121.083.088.149 0 .235-.028.028 0 .116 0 .168s.069.039.107.039c.124 0 .124-.08.127-.168l.008-.13zm2.91 1.281c-.006.08-.006.16 0 .24a.295.295 0 0 0 .061.102c.03-.028.058-.061.091-.086.154-.108.124-.254.083-.398 0-.022-.072-.041-.107-.041s-.094.019-.105.044a.366.366 0 0 0-.036.138h.014zm.435 2.208h-.063c-.074 0-.149.127-.107.185s.083.094.124.141c.041.047.083.08.138 0s.096-.088.132-.138a.143.143 0 0 0 .001-.122.148.148 0 0 0-.095-.077l-.13.011zm6.249-2.12a1.602 1.602 0 0 0-.24 0c-.037 0-.072.015-.097.04a.14.14 0 0 0 0 .196c.025.026.061.04.097.04a.367.367 0 0 0 .378-.185c0-.017.036-.033.033-.044s-.009-.02-.016-.028a.06.06 0 0 0-.028-.016 1.32 1.32 0 0 0-.14-.011l.014.008zM10.321 8.264c0-.063 0-.127-.028-.141s-.132-.066-.168-.044a.273.273 0 0 0 0 .386.175.175 0 0 0 .165-.044c.019-.047.011-.127.017-.166l.014.008zm8.833 2.115a.357.357 0 0 0-.126-.406c-.044-.05-.074-.061-.091 0a.329.329 0 0 0 .039.348l.047.044.091.091c.011-.05.039-.11.028-.086l.014.008zM3.194 20.92a.339.339 0 0 0-.292.277c0 .03.025.072.041.108.116-.061.237-.116.35-.185.017 0 0-.088 0-.121s-.066-.055-.099-.077zm1.622-7.286c.069-.083.138-.163.276-.138 0 0 .041-.025.041-.041a.463.463 0 0 0 0-.174c0-.025-.072-.05-.102-.044a.337.337 0 0 0-.275.295c.008.03.036.066.061.102zm26.249 5.751-.22-.163s-.041.03-.041.044c.01.041.006.083-.009.122s-.043.071-.079.093c-.058.036-.061.061 0 .091.017.01.036.018.055.022.063-.003.292-.155.295-.21zM9.109 7.267c-.03.017-.11.039-.121.08a.722.722 0 0 0 0 .254c0 .017.074.047.083.039.065-.054.124-.116.176-.182.041-.061-.03-.179-.138-.191zm14.156 1.397a.229.229 0 0 0 0-.064c0-.039-.025-.075-.039-.113a.438.438 0 0 0-.091.041.603.603 0 0 0-.129.138c-.019.033-.022.105 0 .121a.274.274 0 0 0 .163.066c.03 0 .08-.033.094-.064a.34.34 0 0 0 .003-.127zm-.317 3.245a.222.222 0 0 0-.063 0l-.11.041a.308.308 0 0 0 .041.088.581.581 0 0 0 .138.133.143.143 0 0 0 .122 0 .313.313 0 0 0 .066-.163.13.13 0 0 0-.067-.096.34.34 0 0 0-.127-.003zM.937 18.786a.99.99 0 0 0-.033-.202c0-.028-.066-.039-.105-.05-.015-.004-.031-.005-.046-.002s-.03.009-.043.018c-.013.009-.024.021-.031.034s-.013.029-.014.044c-.014.066.163.32.193.298s.05-.099.066-.141h.014zM18.518 5.534l-.066-.13a.793.793 0 0 0-.088.086.543.543 0 0 0-.107.149.135.135 0 0 0 .022.115c.031.024.068.04.107.044.083.017.116-.036.13-.102 0-.05-.004-.1-.011-.149l.014-.014zM3.447 20.216c0-.113-.017-.218-.028-.323 0-.017-.03-.03-.044-.047s-.044.03-.044.047v.569c0 .017.028.03.044.047s.041-.028.044-.047c-.003-.069.006-.152.014-.232l.014-.014zm5.285-2.822a.229.229 0 0 1 0-.064c.004-.015.005-.031.002-.047s-.01-.03-.019-.043c-.01-.013-.022-.023-.036-.03s-.03-.01-.046-.01c-.052 0-.138.022-.157.064s0 .119.033.168a.48.48 0 0 0 .138.135s.072-.022.08-.047a.39.39 0 0 0-.008-.113l.014-.014zm-2.053 4.84c-.022.033-.058.064-.063.099-.019.155.127.199.198.293a.333.333 0 0 0 .063-.099c.014-.144-.146-.182-.212-.279l.014-.014zm21.096 1.657a.229.229 0 0 0 0 .064c0 .039.017.099.039.108.085.03.08-.039.096-.097a.622.622 0 0 1 .083-.157c.036-.058 0-.108-.055-.113-.146 0-.179.039-.176.204l.014-.008zm-8.541-12.388c-.025.033-.061.064-.066.099-.022.155.127.202.198.298a.354.354 0 0 0 .063-.099c.028-.152-.135-.191-.198-.29l.003-.008zm-.143 15.778h-.063c-.015-.004-.031-.004-.046-.001s-.03.009-.042.018c-.013.009-.023.02-.032.034s-.013.028-.015.044a.165.165 0 0 0 .019.121c.069.099.088-.022.132-.036.059-.012.117-.029.174-.05.022 0 .039-.055.047-.086s-.028-.039-.044-.041a.937.937 0 0 0-.13-.003zm5.753-24.252c.116 0 .215.025.253-.066 0-.022-.077-.091-.124-.133s-.074-.047-.085-.039a2.079 2.079 0 0 0-.174.177.63.63 0 0 0 .138.061h-.008zM9.316 16.03c-.025.022-.072.041-.074.064a1.539 1.539 0 0 0 0 .254c0 .017.039.044.041.044.063-.044.118-.094.182-.135s.044-.055 0-.091a1.499 1.499 0 0 1-.141-.135h-.008zm-6.062 6.704a.551.551 0 0 0-.176-.218c-.014 0-.044.028-.044.041 0 .058-.022.135 0 .168s.107.039.165.047c.039.003.055-.025.072-.039h-.017zM22.72 7.143l-.041-.11a.289.289 0 0 0-.088.039.945.945 0 0 0-.091.088l-.044.044c.033.022.063.058.099.064.118.014.174-.022.182-.124h-.017zm-5.183-2.565c0-.097-.091-.116-.13-.179a.305.305 0 0 0-.044-.044c-.022.033-.061.066-.063.099-.017.138.058.202.187.166.033-.011.047-.028.066-.041h-.017zm6.965 8.523c.039-.036.066-.052.066-.066 0-.058 0-.135-.044-.168s-.11-.014-.168 0c-.017 0-.044.039-.044.041.077.058.143.127.207.193h-.017zm1.653 5.751v.11c.019.036.042.07.066.102.022-.033.061-.066.061-.102a1.283 1.283 0 0 0-.019-.248.062.062 0 0 0-.042-.045.06.06 0 0 0-.044.044 1.06 1.06 0 0 0-.003.138h-.019zM19.94 7.27l-.044-.108a.414.414 0 0 0-.088.041c-.033.028-.061.061-.091.091l-.041.044c.036.022.066.058.102.061.141.011.174-.03.182-.13h-.019zm-6.279 20.276a.674.674 0 0 0 .127 0c.019 0 .047-.033.044-.041s-.03-.083-.05-.083a1.368 1.368 0 0 0-.256 0c-.017 0-.047.033-.044.041s.025.075.05.086c.049.008.1.007.149-.003h-.019zm17.123-13.321a.387.387 0 0 0 0 .127c0 .025.052.041.083.052s.041-.028.044-.044a1.837 1.837 0 0 0 0-.257c0-.022-.052-.041-.083-.05s-.041.025-.044.041c.004.044.01.087.019.13h-.019zm-18.71-9.47c-.044.041-.088.088-.135.127s-.072.097 0 .133c.04.015.084.015.124 0a.155.155 0 0 0 .074-.156.161.161 0 0 0-.02-.057.212.212 0 0 0-.025-.047h-.019zm11.332 10.069-.074-.116c0 .014-.03.025-.044.041a.665.665 0 0 0-.088.088.588.588 0 0 0-.044.091c.058.014.127.052.171.033s.058-.108.08-.138zM6.177 5.205c-.014-.014-.033-.041-.044-.039-.058 0-.135 0-.168.047s0 .11 0 .168a.062.062 0 0 0 .042.045.522.522 0 0 0 .171-.235v.014zm-.168 15.461c-.019.019-.047.033-.047.05s-.025.133 0 .168c.05.032.109.048.168.044 0 0 .055-.069.047-.077-.036-.08-.11-.138-.168-.199v.014zm2.023 2.877a.551.551 0 0 0-.176-.218c-.014 0-.044.028-.044.041 0 .058-.022.135 0 .168s.107.039.165.047c.022-.011.039-.039.055-.052v.014zm18.223-1.011h-.044c-.016.014-.028.03-.037.049s-.013.039-.013.06c0 .021.004.041.013.06s.021.036.037.049c.007.003.014.005.022.005s.015-.002.022-.005c.016-.013.028-.03.037-.049s.013-.039.013-.06c0-.021-.005-.041-.013-.06s-.021-.036-.037-.049zm3.702.354c.016-.013.028-.03.037-.049s.013-.039.013-.06c0-.021-.004-.041-.013-.06s-.021-.036-.037-.049c-.007-.003-.014-.005-.022-.005s-.015.002-.022.005c-.016.013-.028.03-.037.049s-.013.039-.013.06c0 .021.004.041.013.06s.021.036.037.049h.05-.006zm-23.011.132c.016-.013.028-.03.037-.049s.013-.039.013-.06c0-.021-.005-.041-.013-.06s-.021-.036-.037-.049c-.007-.003-.014-.005-.022-.005s-.015.002-.022.005c-.016.013-.028.03-.037.049s-.013.039-.013.06c0 .021.004.041.013.06s.021.036.037.049h.05-.005zm22.507.199c-.013-.016-.03-.028-.049-.037s-.039-.013-.06-.013c-.021 0-.041.005-.06.013s-.035.021-.049.037c-.004.006-.006.013-.006.021s.002.015.006.021c.013.016.03.028.048.037s.039.013.059.013c.02 0 .041-.005.059-.013s.035-.021.048-.037c0 0 .008-.025.008-.041h-.006zm-21.978.376h-.044c-.016.013-.028.03-.037.049s-.013.039-.013.06c0 .021.005.041.013.06s.021.036.037.049c.007.003.014.005.022.005s.015-.002.022-.005c.016-.013.029-.029.038-.048s.014-.039.015-.06a.149.149 0 0 0-.048-.11h-.005zm21.717-13.529c.044-.016.088-.034.13-.055v-.041c-.047-.069-.187-.069-.212 0-.006.022.061.066.088.094l-.006.003zM7.74 24.788h-.044c-.016.014-.028.03-.037.049s-.013.039-.013.06c0 .021.005.041.013.06s.021.036.037.049c.007.003.014.005.022.005s.015-.002.022-.005a.14.14 0 0 0 .054-.109.158.158 0 0 0-.012-.061.13.13 0 0 0-.037-.05l-.006.003zM4.017 10.263c-.028.072-.05.147-.063.224 0 .033.041.066.063.099.022-.033.061-.066.061-.099a1.33 1.33 0 0 0-.055-.226l-.005.003zm15.283.74-.055-.13c-.007-.003-.014-.005-.022-.005s-.015.002-.022.005c-.066.05-.066.191 0 .213.03.008.077-.058.105-.086l-.006.003zM6.177 25.738c-.013-.016-.03-.028-.049-.037s-.039-.013-.06-.013c-.021 0-.041.005-.06.013s-.035.021-.049.037a.046.046 0 0 0 0 .042c.013.016.03.028.049.037s.039.013.06.013c.021 0 .041-.005.06-.013s.035-.021.049-.037c0 0 .006-.028.006-.044l-.006.003zm5.321.372-.055-.13c-.007-.003-.014-.005-.022-.005s-.015.002-.022.005c-.066.05-.066.191 0 .213.03.008.077-.05.105-.086l-.005.003zm18.484-14.155c-.013-.016-.03-.028-.049-.037s-.039-.013-.06-.013c-.021 0-.041.005-.06.013s-.035.021-.049.037a.04.04 0 0 0 0 .042c.013.016.03.028.048.037s.039.013.059.013c.02 0 .041-.004.059-.013s.035-.021.048-.037c0 0 .008-.028.008-.044l-.006.003zm-28.017 1.58.069.099c.022-.033.063-.069.061-.099a.613.613 0 0 0-.061-.166c-.017.017-.039.028-.044.047a.758.758 0 0 0-.019.116l-.006.003zm1.788.704c-.028.072-.05.147-.063.224 0 .033.041.066.063.099.022-.033.061-.066.061-.099a1.33 1.33 0 0 0-.055-.226l-.006.003zm4.959.436c-.028-.028-.074-.094-.094-.086-.072.022-.072.163 0 .213.007.003.014.005.022.005s.015-.002.022-.005c.025-.033.039-.072.063-.13l-.014.003zm14.812.828-.074-.149c-.017.017-.039.028-.044.047a.21.21 0 0 0-.019.116c0 .039.041.069.063.102l.074-.116zM3.235 16.79c.016-.013.028-.03.037-.049s.013-.039.013-.06-.004-.041-.013-.06a.138.138 0 0 0-.037-.049c-.007-.003-.014-.005-.022-.005s-.015.002-.022.005c-.016.014-.028.03-.037.049s-.013.039-.013.06.004.041.013.06a.138.138 0 0 0 .037.049h.058-.014zM16.912 3.408c-.028-.028-.074-.094-.094-.086-.072.022-.072.163 0 .213.007.003.014.005.022.005s.015-.002.022-.005c.025-.03.039-.069.063-.127h-.014zM6.067 4.772c-.025-.058-.039-.094-.058-.13s-.03 0-.041 0c-.066.05-.066.191 0 .213.039.011.085-.055.113-.083h-.014zm19.562.229.077.149a.649.649 0 0 0 .061-.166c0-.03-.039-.066-.061-.099l-.077.116zm.529 0 .077.149a.649.649 0 0 0 .061-.166c0-.03-.039-.066-.061-.099l-.077.116zm-15.85.301-.055-.13c-.007-.003-.014-.005-.022-.005s-.015.002-.022.005c-.066.05-.066.191 0 .213.03.011.066-.055.105-.083h-.005zm.895.069v-.044c-.013-.016-.03-.029-.049-.038a.139.139 0 0 0-.12 0 .15.15 0 0 0-.049.038c-.003.007-.005.014-.005.022s.002.015.005.022a.148.148 0 0 0 .174.039.158.158 0 0 0 .05-.039h-.006zm15.906-.1-.146.077a.628.628 0 0 0 .163.061c.03 0 .066-.039.102-.061l-.118-.077zm-21.174.376-.066-.099c-.022.033-.066.069-.063.099a.654.654 0 0 0 .063.166c.014-.014.036-.028.041-.047a.797.797 0 0 0 .03-.119h-.005zm22.761 14.864-.146.077a.628.628 0 0 0 .163.061c.03 0 .066-.039.102-.061l-.118-.077zM26.808 6.707v-.044c-.013-.016-.03-.029-.049-.038a.139.139 0 0 0-.12 0 .15.15 0 0 0-.049.038c-.003.007-.005.014-.005.022s.002.015.005.022c.014.015.031.026.05.033s.039.011.06.01c.02-.001.04-.006.058-.016s.034-.022.047-.038l.003.011zM9.588 3.684l.05-.047a.497.497 0 0 0-.091-.041l-.041.041.083.047zm7.406.171-.083.047c.014 0 .03.044.041.041a.415.415 0 0 0 .091-.041l-.05-.047zm.295.066-.047-.086c-.017.014-.044.033-.041.044a.32.32 0 0 0 .041.088l.047-.047zm-11.536.332L5.67 4.3c.014 0 .03.044.041.041a.415.415 0 0 0 .091-.041l-.05-.047zm21.028 0-.083.047s.03.044.041.041a.415.415 0 0 0 .091-.041l-.05-.047zm-11.522.245c-.017.014-.044.033-.041.044a.32.32 0 0 0 .041.088c.014 0 .041-.033.041-.044a.586.586 0 0 0-.036-.099l-.005.011zm-4.084.152-.083.047c.014.014.03.044.041.041a.415.415 0 0 0 .091-.041l-.05-.047zm4.497.133-.083.047c.014.014.03.044.041.041a.415.415 0 0 0 .091-.041l-.05-.047zm3.951.245c-.017.014-.044.033-.041.044a.32.32 0 0 0 .041.088c0-.014.041-.033.041-.044a.646.646 0 0 0-.022-.099l-.019.011zm-.777.246.05-.047a.497.497 0 0 0-.091-.041l-.041.041.083.047zM4.761 5.34l.05.086c.014 0 .041-.033.041-.044a.585.585 0 0 0-.041-.088l-.05.047zm1.221.9-.047.047a.32.32 0 0 0 .088.041s.028-.028.044-.041l-.085-.047zm20.939.094.05-.047a.574.574 0 0 0-.091-.041l-.041.041.083.047zm-23.077.067.05.086c.014-.014.041-.033.041-.044a.585.585 0 0 0-.041-.088l-.05.047zM8.04 7.764l-.047-.086c-.016.014-.044.033-.044.044a.402.402 0 0 0 .044.088l.047-.047zm.631.199-.083.047c.014.014.03.044.041.041a.415.415 0 0 0 .091-.041l-.05-.047zm16.663 1.022.05-.047a.497.497 0 0 0-.091-.041l-.041.041.083.047zM9.296 10.708l.085-.047c-.017-.014-.033-.044-.044-.041a.414.414 0 0 0-.088.041l.047.047zm-6.017.369-.047-.086c-.017.014-.044.033-.044.044a.402.402 0 0 0 .044.088l.047-.047zm21.262.597-.083.047s.03.044.041.041a.415.415 0 0 0 .091-.041l-.05-.047zm4.43 1.656.05.047a.585.585 0 0 0 .041-.088l-.041-.044-.05.086zm-24.086.511c-.017 0-.033-.044-.044-.041a.414.414 0 0 0-.088.041c.014.014.03.044.041.041a.371.371 0 0 0 .088-.052l.003.011zm18.399.511.05.086c.014-.014.041-.033.041-.044a.704.704 0 0 0-.041-.088l-.05.047zm-.168.276-.047-.047a.32.32 0 0 0-.041.088s.025.03.041.044l.047-.086zm-21.424.171-.047-.086c-.017.014-.044.033-.044.044a.402.402 0 0 0 .044.088l.047-.047zm7.111.331-.083.047c0 .014.03.044.041.041a.415.415 0 0 0 .091-.041l-.05-.047zm19.821.379c-.017.014-.044.033-.041.044a.32.32 0 0 0 .041.088c0-.014.041-.033.041-.044a.616.616 0 0 0-.044-.11l.003.022zm-5.441.828-.047.047a.32.32 0 0 0 .088.041s.028-.028.044-.041l-.085-.047zm-21.058.425.05.086c.014-.014.041-.033.041-.044a.585.585 0 0 0-.041-.088l-.05.047zM31.418 17l-.083.047c.014.014.03.044.041.041a.415.415 0 0 0 .091-.041l-.05-.047zm-22.483.226.05-.047a.497.497 0 0 0-.091-.041l-.041.041.083.047zm22.747 0 .05-.047a.497.497 0 0 0-.091-.041l-.041.041.083.047zm-25.921.039-.083.047c.014.014.03.044.041.041a.415.415 0 0 0 .091-.041l-.05-.047zm-1.785 1.126.05.047a.585.585 0 0 0 .041-.088l-.041-.044-.05.086zm25.723.16.05-.047a.497.497 0 0 0-.091-.041l-.041.041.083.047zm-24.701.238-.047-.086c-.017.014-.044.033-.044.044a.402.402 0 0 0 .044.088l.047-.047zm3.408-.067-.083.047s.03.044.041.041a.415.415 0 0 0 .091-.041l-.05-.047zm22.579 0-.047.047a.32.32 0 0 0 .088.041s.028-.028.044-.041l-.085-.047zm-4.923.553.05.086c0-.014.041-.033.041-.044a.704.704 0 0 0-.041-.088l-.05.047zm-23.18.171-.047-.086c-.017.014-.044.033-.044.044a.402.402 0 0 0 .044.088l.047-.047zm.276-.02c-.017-.014-.033-.044-.044-.041a.414.414 0 0 0-.088.041c.014.014.03.044.041.041a.377.377 0 0 0 .096-.072l-.006.03zm2.204.18.05-.047a.497.497 0 0 0-.091-.041l-.041.041.083.047zm2.579.237.05.047a.585.585 0 0 0 .041-.088l-.041-.044-.05.086zm-3.177.367.05.047a.585.585 0 0 0 .041-.088l-.041-.044-.05.086zm-1.322.492.05.086c.014-.014.041-.033.041-.044a.585.585 0 0 0-.041-.088l-.05.047zm26.945.397-.047-.047a.32.32 0 0 0-.041.088s.025.03.041.044l.047-.086zm-2.755.398.05.086c0-.014.041-.033.041-.044a.704.704 0 0 0-.041-.088l-.05.047zm-15.509.569-.047-.086c-.017.014-.044.033-.041.044a.32.32 0 0 0 .041.088l.047-.047zm14.217.027.085-.047c-.017-.014-.033-.044-.044-.041a.414.414 0 0 0-.088.041l.047.047zm-11.704.37-.047-.086c-.017.014-.044.033-.041.044a.32.32 0 0 0 .041.088l.047-.047zm15.076.094-.047-.047a.32.32 0 0 0-.041.088s.025.03.041.044l.047-.086zm-15.208.928-.047-.047a.32.32 0 0 0-.041.088s.025.03.041.044l.047-.086zm12.299 0-.047-.047a.32.32 0 0 0-.041.088s.025.03.041.044l.047-.086zm-23.012.304-.047-.086c-.017 0-.044.033-.044.044a.402.402 0 0 0 .044.088l.047-.047zm3.582.624-.047-.047a.426.426 0 0 0-.044.088s.028.03.044.044l.047-.086zm19.344 0 .05.086c0-.014.041-.033.041-.044a.704.704 0 0 0-.041-.088l-.05.047zm-22.68.198.05-.047a.497.497 0 0 0-.091-.041l-.041.041.083.047zm-.331.199.05.086c0-.014.041-.033.041-.044a.585.585 0 0 0-.041-.088l-.05.047zm3.372.199.05-.047a.497.497 0 0 0-.091-.041l-.041.041.083.047zm16.862-.028.05.047a.585.585 0 0 0 .041-.088l-.041-.044-.05.086zm-13.555.862-.083.047c.014.014.03.044.041.041a.415.415 0 0 0 .091-.041l-.05-.047zm11.668.331-.047-.086c-.017.014-.044.033-.041.044a.32.32 0 0 0 .041.088l.047-.047zm-16.446.312c-.017.014-.044.033-.044.044a.402.402 0 0 0 .044.088c.014-.014.041-.033.041-.044a.692.692 0 0 0-.039-.088h-.003zm13.14.975-.047-.047a.32.32 0 0 0-.041.088s.025.03.041.044l.047-.086zm-4.924.596.05-.047a.497.497 0 0 0-.091-.041l-.041.041.083.047zm-6.45.37-.047-.086c-.016.014-.044.033-.044.044a.402.402 0 0 0 .044.088l.047-.047z"/><path fill="#b878a8" style="fill:var(--color2, #b878a8)" d="M22.207 2.367c-.066 0-.168.028-.193 0-.176-.221-.474-.276-.656-.502-.08-.097-.025-.121.017-.193a.279.279 0 0 0-.024-.353c-.052-.052-.072-.13 0-.133h1.317c.096.157.253.13.405.135.102 0 .22-.055.306.05s.276.08.369.229c.062.104.156.185.268.231s.236.053.352.021c.022 0 .05.05.074.075-.171.094-.085.276-.143.403a.207.207 0 0 1-.165.044c-.08-.121-.22-.113-.328-.177-.163-.099-.165-.094-.276.105a.16.16 0 0 1-.218.058c-.05-.041-.094-.091-.141-.138s-.11-.149-.185-.028c-.124.207-.322.191-.515.185.014-.08 0-.193.047-.235.127-.105.069-.235.083-.353 0-.014-.022-.036-.039-.047s-.039-.014-.044 0c-.19.155-.397.318-.311.624zm1.168-.486c-.013-.016-.03-.028-.049-.037s-.039-.013-.06-.013c-.021 0-.041.004-.06.013s-.035.021-.049.037c-.003.006-.005.014-.005.021s.002.014.005.021c.013.016.03.028.049.037s.039.013.06.013c.021 0 .041-.004.06-.013s.035-.021.049-.037v-.041zM7.395 3.295c0-.243 0-.246-.171-.276h-.13a.136.136 0 0 1-.091-.2c.036-.041.11-.047.168-.063.014 0 .041 0 .052.028a.274.274 0 0 0 .299.111.284.284 0 0 0 .101-.051.32.32 0 0 0 .174-.32c0-.133.014-.135.154-.072a.327.327 0 0 0 .356-.019c.033-.025.061-.063.094-.091.044-.035.09-.067.138-.097.017.058.028.119.047.177s.03.033.047.047c.107-.11.218-.221.325-.337a.184.184 0 0 1-.044-.044.507.507 0 0 1-.036-.091c.058 0 .146-.05.174-.025.085.077.127.127.242.017s.179-.052.209.105.088.13.179.13.077-.052.039-.121a1.213 1.213 0 0 1-.077-.163.102.102 0 0 1 .014-.061c.028-.058.061-.064.091 0 .069.116.185.091.292.091.028.232-.091.342-.303.4-.163.044-.047.11 0 .16s.03.091-.022.088a.372.372 0 0 0-.312.187c-.08.105-.182.088-.276.094-.031.005-.063-.003-.089-.022s-.043-.047-.049-.078a.897.897 0 0 1 0-.127c-.017-.163-.017-.163-.152-.086a2.072 2.072 0 0 0-.325.166c-.063.055-.207 0-.344 0h.028a.067.067 0 0 0 0-.056c-.03-.044-.069-.097-.116-.019 0 0 .039.052.088.077.024.04.035.086.03.133-.052.03-.121.05-.154.094-.072.094-.105.248-.193.293a.987.987 0 0 1-.383 0l-.074.019zM24.601 4.609v.196c0 .179 0 .182-.163.202h-.066c-.157.019-.157.019-.165.276-.13-.064-.276-.119-.383-.193-.022-.014 0-.113.019-.174.032.009.063.02.094.033l.094.047a.318.318 0 0 0 .019-.11.196.196 0 0 0-.05-.11c0-.014-.039-.017-.058-.017a.345.345 0 0 1-.424-.29.337.337 0 0 0-.15-.206.317.317 0 0 0-.253-.034.091.091 0 0 1-.061 0 .211.211 0 0 1-.055-.108c0-.075-.025-.135-.094-.146a1.062 1.062 0 0 0-.276 0c-.149 0-.182-.061-.185-.196 0-.047-.091-.091-.121-.146-.01-.019-.015-.04-.015-.062s.005-.043.015-.062c.083-.097.251-.061.317-.191 0 0 .033.017.044.03a.13.13 0 0 1 .028.055c.017.102-.05.237.072.298a.664.664 0 0 0 .259 0 .294.294 0 0 1 .132 0c.03.014.047.063.066.099s.055.155.077.152c.248-.014.295.329.551.295.154.146.38.188.512.37.033.03.138-.008.218-.008zM19.959 1.969h.276c.127 0 .171-.099.107-.226-.116-.226-.113-.254.022-.364a.315.315 0 0 1 .402 0c.083.064.163.138.251.193s.127.088.036.182a.243.243 0 0 1-.229.085c-.135-.019-.187.033-.198.177 0 .094-.165.146-.124.276.025.08.149.099.132.21-.322.08-.493-.138-.658-.345-.044-.033-.017-.124-.017-.188zM3.056 7.527c-.044.055-.074.124-.118.135s-.171 0-.174.133c-.003.133.069.138.163.138s.146 0 .185.025c.115.097.219.207.309.329.022.028-.017.135-.055.16s-.118 0-.171-.025c-.052-.025-.017-.077-.033-.113a.476.476 0 0 0-.05-.11.455.455 0 0 0-.069.094c-.055.127-.107.26-.163.389-.004.01-.01.019-.018.026s-.018.011-.029.013a.273.273 0 0 1-.127 0c-.019 0-.039-.077-.028-.086.118-.105.149-.207.014-.32-.05-.044-.091-.094-.138-.141s.044-.088.052-.138c.008-.05.044-.16.025-.171-.127-.077-.105-.224-.176-.326s-.069-.119.058-.135c.08 0 .16.022.245-.041s.121-.061.182 0 .066.102.116.166zM15.697 3.692h-.529c-.066 0-.105-.044-.107-.127s.039-.133.105-.133c.152 0 .185-.08.163-.202 0-.066 0-.086.066-.066a.235.235 0 0 0 .275-.138c.107-.174.19-.066.276 0 .03.022.085 0 .121.019s.055.052.014.091a.283.283 0 0 0-.112.222.278.278 0 0 0 .112.222c.041.044.052.083 0 .088-.176.019-.35.019-.383.022zM12.021 1.439c.198-.077.375.077.573.135a.12.12 0 0 1 .091.143c0 .077-.041.116-.118.119s-.176 0-.262 0c-.085 0-.149-.047-.154-.152 0-.044-.019-.16-.099-.069a.298.298 0 0 1-.295.086c-.041 0-.13.069-.135-.063s.028-.196.107-.199c.08-.003.174 0 .292 0zM10.938 1.826h-.581c-.014 0-.036-.025-.041-.044s.014-.041.025-.044a.846.846 0 0 0 .325-.16c.019-.007.04-.01.06-.006s.039.012.055.025c.138.191.193 0 .276-.052.041-.025.074-.144.132-.061s.196.063.276.13c.08.066.105.061.154.097s0 .044 0 .061-.028.044-.044.047l-.642.03.005-.022zM22.075 3.347c0 .044.017.105 0 .127s-.127.094-.146.08c-.13-.102-.248-.221-.372-.334.091-.069.16-.144.019-.232 0-.174.229-.039.276-.182 0-.055.08-.047.085 0 .011.196.22.329.138.541zM31.139 19.992c.118-.036.174.099.262.121s.047.097.061.141-.03.121-.096.133c-.066.011-.149-.022-.193 0-.13.091-.245.133-.331-.039-.039-.072-.229-.083-.11-.226.069-.08.138-.168.276-.138a.836.836 0 0 0 .132.008zM6.582 4.752c-.036-.019-.099-.036-.102-.061s0-.157.03-.171c.207-.088.402-.191.601-.295.025-.014.08 0 .113.033s0 .064-.022.088c-.116.196-.336.248-.504.373a.394.394 0 0 1-.116.033zM23.105 2.499c.132-.019.176.102.256.166s.022.05-.022.094c-.102.099-.231.185-.237.359a.243.243 0 0 1-.168.039c-.055-.019-.091-.091-.14-.133s-.03-.124.022-.121c.132 0 .187-.086.276-.152s-.022-.097-.041-.141a.191.191 0 0 0-.041-.044l.096-.066zM23.194 6.489a.546.546 0 0 1-.171-.061c-.077-.069-.176-.13-.157-.262.012-.042.012-.086-.001-.128s-.039-.078-.073-.104c-.091-.066-.017-.113.036-.116a.269.269 0 0 1 .165.064c.022.017 0 .08 0 .124 0 .121 0 .207.163.21s.096.11.107.193c.011.083.003.088-.069.08z"/><path fill="#b878a8" style="fill:var(--color2, #b878a8)" d="M7.271 3.297c.03.03.138-.072.121.063a.533.533 0 0 1-.044.171c-.143 0-.212.13-.333.157-.036 0-.102 0-.113-.033s-.044-.138-.019-.171c.085-.124.196-.257.388-.188zM20.788 2.632c-.041 0-.094 0-.121-.022s-.132-.094.017-.116c.028 0 .047-.063.066-.099s.041-.144.08-.152a.804.804 0 0 1 .259 0c.017 0 .047.036.044.044-.036.091-.152.144-.124.276 0 .014-.099.052-.154.075a.246.246 0 0 1-.066-.006zM18.322 2.764c.229-.036.389.124.576.202v.063h-.331c-.094-.163-.256-.13-.405-.141-.017 0-.047-.039-.044-.041s.041-.069.072-.08a.418.418 0 0 1 .132-.003zM21.81 5.084c.044-.047.096-.088.138-.141s.058-.052.096-.025a.388.388 0 0 1 .16.398.133.133 0 0 1-.022.055c-.03.055-.052.044-.096 0-.085-.105-.185-.193-.276-.287zM14.272 3.292c-.014.036-.019.094-.044.108-.091.041-.204.03-.276.135l-.223-.174c.014-.017.028-.041.044-.044.082-.003.164-.011.245-.025a.916.916 0 0 0 .193-.108l.061.108zM18.57 1.439a.897.897 0 0 1 .127 0c.017 0 .036.025.047.041a.082.082 0 0 1 0 .044c-.138.03-.24.144-.377.177-.015.005-.032.006-.048.002a.096.096 0 0 1-.071-.06.094.094 0 0 1-.006-.047c0-.055.033-.141.072-.152a.915.915 0 0 1 .256-.006zM29.084 8.063a.76.76 0 0 1 0 .135c0 .055-.118 0-.121-.105s-.19-.191-.141-.34a.129.129 0 0 1 .033-.052.073.073 0 0 1 .044-.019c.11.102.237.202.185.381zM10.842 2.748c-.022.041-.041.135-.074.141-.094 0-.231-.276-.174-.345a.143.143 0 0 1 .107-.042c.039 0 .094.019.105.044a.765.765 0 0 1 .036.202zM15.06 4.026c-.017.017-.03.044-.047.044a.364.364 0 0 0-.276.13.283.283 0 0 1-.08-.052v-.061c0-.127.127-.157.185-.24.03.013.058.029.083.05.048.04.093.084.135.13zM30.732 13.101a.208.208 0 0 1-.061 0c-.039 0-.074-.028-.11-.041a.348.348 0 0 1 .044-.091c.041-.047.116-.13.13-.124.068.05.128.11.179.177 0 0-.03.066-.055.077a.387.387 0 0 1-.127.003zM3.566 8.325c-.022-.254.044-.276.168-.257.03 0 .055.047.083.069a.301.301 0 0 0-.124.326.167.167 0 0 1-.063 0c-.01-.002-.019-.007-.027-.014s-.014-.015-.017-.025a.34.34 0 0 1-.019-.099zM27.668 4.114h.044c.055.086.187.116.179.243a.332.332 0 0 1-.041.11h-.041c-.055-.086-.187-.113-.179-.243a.437.437 0 0 1 .039-.11zM31.465 20.125v-.398c.105-.017.132.088.196.133s.063.088 0 .133-.091.149-.196.133zM10.437 2.897c0 .113-.066.141-.16.13-.036 0-.066-.039-.102-.058.014-.017.022-.03.036-.044s.058-.063.091-.091a.439.439 0 0 1 .088-.047l.047.11zM30.803 12.502a.387.387 0 0 1 0 .127c0 .025-.052.041-.083.052s-.041-.028-.044-.044a1.837 1.837 0 0 1 0-.257c0-.022.052-.041.083-.05s.041.025.044.041a.94.94 0 0 1 0 .13zM13.669 2.237c-.03 0-.091 0-.149-.028a.08.08 0 0 1-.041-.044c-.025-.063 0-.075.061-.066s.168 0 .251 0c.028 0 .05.047.072.077s-.025.036-.044.039a.837.837 0 0 1-.149.022zM30.481 11.787c.061.056.119.116.174.179 0 0-.039.066-.063.072s-.149.028-.179 0-.014-.119 0-.179c.014-.061.044-.05.069-.072zM18.083 1.928c-.017.014-.033.041-.047.039-.058 0-.135 0-.165-.047s0-.11 0-.168c0-.014.03-.041.044-.041a.546.546 0 0 1 .168.218zM13.151 1.969c-.176 0-.201 0-.201-.144a.209.209 0 0 1 .05-.102h.041c.058.058.116.116.171.177.005.009.007.019.007.029s-.003.02-.007.029c0 0-.039.011-.061.011zM10.175 1.779c-.007.05-.018.1-.03.149 0 .017-.025.033-.044.041-.061.022-.072 0-.063-.064s0-.168 0-.251c0-.025.047-.05.074-.069s.036.025.041.041c.006.017.014.08.022.152zM14.801 3.228a.94.94 0 0 1 0-.13c0-.017.033-.047.044-.041s.08.028.083.05c.006.086.006.171 0 .257 0 .017-.033.047-.044.044s-.074-.028-.083-.052a.387.387 0 0 1 0-.127zM3.136 7.093c-.017 0-.03.033-.047.039-.13.036-.204-.028-.19-.166 0-.033.044-.066.066-.099l.044.044c.132.133.138.141.127.182zM6.742 2.886l.118.072a.313.313 0 0 1-.036.044c-.03.033-.063.061-.088.091s-.096.072-.132 0c-.01-.019-.015-.04-.015-.062s.005-.043.015-.062a.497.497 0 0 1 .138-.083z"/><path fill="#b878a8" style="fill:var(--color2, #b878a8)" d="M13.214 1.969a.473.473 0 0 1 .176 0c.039.017.058.083.088.127a.49.49 0 0 1-.179 0c-.039-.017-.058-.083-.085-.127zM22.472 2.367c-.03.044-.05.11-.088.127a.473.473 0 0 1-.176 0v-.133l.265.006zM22.204 2.56c-.021.034-.054.059-.092.07s-.079.006-.115-.012c-.019 0-.044-.036-.044-.039s.041-.072.069-.077a.791.791 0 0 1 .182 0 .096.096 0 0 1 0 .058zM19.152 3.107c-.014.058-.121.075-.212.028a.08.08 0 0 1-.039-.044c-.025-.061 0-.077.061-.061l.171.036.019.041zM28.423 5.039c-.019.033-.039.066-.055.099-.028-.044-.072-.086-.072-.13s-.069-.141.055-.121c.028 0 .05.055.069.088a.172.172 0 0 1 .003.064zM24.442 5.36c0 .058-.121.075-.212.028a.08.08 0 0 1-.039-.044c-.025-.061 0-.077.061-.061l.171.036.019.041zM4.354 7.27a.479.479 0 0 1 0-.177c.019-.041.085-.061.13-.088a.479.479 0 0 1 0 .177c-.022.041-.085.061-.13.088zM17.438 1.392l-.047.047a.32.32 0 0 1-.041-.088s.025-.03.041-.044l.047.086zM19.898 1.969c-.019-.025-.063-.066-.058-.077.047-.077.085-.025.116.019a.067.067 0 0 1 0 .056l-.058.003zM10.106 2.367c.016.028.03.058.041.088l-.041.044a.426.426 0 0 1-.044-.088s.028-.03.044-.044zM14.09 2.613l-.083-.047c.014 0 .03-.044.041-.041a.618.618 0 0 1 .091.041l-.05.047zM23.877 2.613l-.083-.047s.03-.044.041-.041a.574.574 0 0 1 .091.041l-.05.047zM24.601 2.632c-.066 0-.124 0-.107-.088 0-.022.069-.03.107-.044v.133zM16.171 2.651l.085.047c-.017 0-.033.044-.044.041a.32.32 0 0 1-.088-.041l.047-.047zM26.255 2.764c.016.028.03.058.041.088l-.041.044a.32.32 0 0 1-.041-.088s.011-.03.041-.044zM8.31 2.974c-.017.017-.039.044-.044.041a.305.305 0 0 1-.077-.061.067.067 0 0 1 0-.056c.008-.005.018-.008.028-.008s.019.003.028.008a.394.394 0 0 1 .066.075zM11.569 2.908c.017.017.044.036.041.041a.209.209 0 0 1-.061.077h-.055c-.019 0 0-.047 0-.058a.437.437 0 0 1 .074-.061zM15.27 3.162c-.019-.025-.063-.066-.058-.077.047-.077.085-.025.116.019s0 .039 0 .058h-.058zM8.434 3.38l-.047.047a.426.426 0 0 1-.044-.088s.028-.03.044-.044l.047.086zM20.157 3.56c.016.028.03.058.041.088l-.041.044a.32.32 0 0 1-.041-.088s.025-.03.041-.044zM13.459 3.78l-.047.047a.32.32 0 0 1-.041-.088s.025-.03.041-.044l.047.086zM13.231 4.137l.05-.047c.016.028.03.058.041.088l-.041.044-.05-.086zM14.517 4.667l-.047.086c-.017-.014-.044-.033-.041-.044a.32.32 0 0 1 .041-.088l.047.047z"/><path fill="#b878a8" style="fill:var(--color2, #b878a8)" d="M28.23 4.885c-.019-.025-.063-.066-.058-.077.047-.077.085-.025.116.019a.067.067 0 0 1 0 .056l-.058.003zM1.733 8.548l.05-.086c.014.014.041.033.041.044a.704.704 0 0 1-.041.088l-.05-.047zM3.813 8.54c-.017.017-.039.044-.044.041a.305.305 0 0 1-.077-.061.067.067 0 0 1 0-.056c.008-.005.018-.008.028-.008s.019.003.028.008a.394.394 0 0 1 .066.075zM2.585 8.88l.05.047a.339.339 0 0 1-.091.041l-.041-.041.083-.047zM3.577 9.344l.05-.086c.014.014.041.033.041.044a.585.585 0 0 1-.041.088l-.05-.047zM3.632 9.788c-.019-.025-.063-.066-.058-.077.047-.077.085-.025.116.019a.067.067 0 0 1 0 .056s-.028.003-.058.003zM30.387 11.191c-.017.017-.039.044-.044.041a.305.305 0 0 1-.077-.061.067.067 0 0 1 0-.056c.008-.005.018-.008.028-.008s.019.003.028.008a.394.394 0 0 1 .066.075zM30.274 14.957c0-.064 0-.124.085-.105.022 0 .03.069.047.105h-.132zM31.151 14.937l-.083-.047c0-.014.03-.044.041-.041a.574.574 0 0 1 .091.041l-.05.047zM31.944 18.25l-.083-.047c0-.014.03-.044.041-.041a.574.574 0 0 1 .091.041l-.05.047zM30.85 21.828l-.047-.047a.414.414 0 0 1 .088-.041s.028.028.044.041l-.085.047zM5.356 8.474c.055.014.072.121.028.213a.102.102 0 0 1-.044.041c-.061.022-.08 0-.063-.061s.022-.116.036-.171c.003-.022.028-.022.044-.022z"/><path fill="#b878a8" style="fill:var(--color2, #b878a8)" d="M5.147 8.728h.132c0 .063 0 .124-.088.105-.022-.006-.03-.069-.044-.105zM2.452 19.575l-.083-.047c.014-.014.03-.044.041-.041a.618.618 0 0 1 .091.041l-.05.047zM8.963 13.281l-.047.086c-.017-.014-.044-.033-.044-.044a.402.402 0 0 1 .044-.088l.047.047zM5.665 11.191c-.016.017-.039.044-.044.041a.305.305 0 0 1-.077-.061.067.067 0 0 1 0-.056c.008-.005.018-.008.028-.008s.019.003.028.008a.394.394 0 0 1 .066.075zM5.591 6.188a.782.782 0 0 1 .091.091c.005.009.008.02.008.03s-.003.021-.008.03h-.063a.328.328 0 0 1-.33-.306.086.086 0 0 1 .028-.052.098.098 0 0 1 .044-.028c.08.075.154.152.231.229v.006zM14.787 28.286c-.014.058-.121.075-.212.028a.08.08 0 0 1-.039-.044c-.025-.061 0-.077.061-.061l.171.036.019.041zM4.213 12.497c-.028.022-.066.066-.077.058-.08-.047-.025-.083.017-.113.009-.005.019-.008.029-.008s.02.003.029.008c0 0 .003.036.003.055z"/></symbol><symbol id="instagram_icon" viewBox="0 0 32 32"><path fill="#ffd24e" style="fill:var(--color1, #ffd24e)" d="M15.915 9.425c-3.951 0-7.224 3.217-7.224 7.224s3.217 7.224 7.224 7.224 7.224-3.273 7.224-7.224-3.273-7.224-7.224-7.224zm0 11.851c-2.54 0-4.628-2.088-4.628-4.628s2.088-4.628 4.628-4.628 4.628 2.088 4.628 4.628-2.088 4.628-4.628 4.628zM23.422 10.892a1.637 1.637 0 1 0 0-3.274 1.637 1.637 0 0 0 0 3.274z"/><path fill="#ffd24e" style="fill:var(--color1, #ffd24e)" d="M27.654 5.023c-1.467-1.524-3.555-2.314-5.926-2.314H10.102c-4.91 0-8.183 3.273-8.183 8.183v11.57c0 2.427.79 4.515 2.37 6.039 1.524 1.467 3.556 2.201 5.869 2.201h11.513c2.427 0 4.458-.79 5.926-2.201 1.524-1.467 2.314-3.555 2.314-5.982V10.893c0-2.37-.79-4.402-2.258-5.87zm-.226 17.495c0 1.75-.621 3.16-1.637 4.12s-2.427 1.467-4.12 1.467H10.158c-1.693 0-3.104-.508-4.12-1.467-1.016-1.016-1.524-2.427-1.524-4.176v-11.57c0-1.693.508-3.104 1.524-4.12.959-.959 2.427-1.467 4.12-1.467h11.626c1.693 0 3.104.508 4.12 1.524.959 1.016 1.524 2.427 1.524 4.063v11.626z"/></symbol><symbol id="on-the-left" viewBox="0 0 32 32"><path stroke-linecap="round" stroke-width="1.939" d="M21.818.97S10.182 15.625 10.182 16.752s11.636 14.279 11.636 14.279"/></symbol><symbol id="on-the-right" viewBox="0 0 32 32"><path stroke-linecap="round" stroke-width="1.939" d="M10.182.97s11.636 14.655 11.636 15.782-11.636 14.279-11.636 14.279"/></symbol><symbol id="phone_icon" viewBox="0 0 32 32"><path fill="#f6deba" style="fill:var(--color3, #f6deba)" d="m.047 24.187 1.453 6.3a1.942 1.942 0 0 0 1.904 1.514C19.174 32 32 19.175 32 3.407c0-.916-.623-1.7-1.514-1.903L24.185.051a1.96 1.96 0 0 0-2.236 1.132l-2.908 6.781a1.955 1.955 0 0 0 .561 2.278l3.365 2.702a21.855 21.855 0 0 1-9.97 9.968l-2.755-3.362a1.945 1.945 0 0 0-2.28-.561L1.18 21.896c-.816.429-1.347 1.379-1.135 2.291z"/></symbol><symbol id="Polygon-response" viewBox="0 0 32 32"><path fill="#ffd24e" style="fill:var(--color1, #ffd24e)" d="M29.167 14.744c.93.532.935 1.871.009 2.41L5.318 31.052a1.392 1.392 0 0 1-2.092-1.197l-.107-27.61a1.391 1.391 0 0 1 2.082-1.213l23.965 13.712z"/></symbol><symbol id="Star_icon" viewBox="0 0 32 32"><path fill="#ffd24e" style="fill:var(--color1, #ffd24e)" d="M14.409 2.05c.524-1.508 2.657-1.508 3.182 0l2.578 7.417a1.684 1.684 0 0 0 1.557 1.131l7.851.16c1.596.033 2.256 2.061.983 3.026l-6.257 4.744a1.686 1.686 0 0 0-.595 1.83l2.274 7.516c.462 1.528-1.263 2.782-2.574 1.87l-6.445-4.485a1.685 1.685 0 0 0-1.924 0l-6.445 4.485c-1.311.912-3.036-.342-2.574-1.87l2.274-7.516a1.684 1.684 0 0 0-.595-1.83l-6.257-4.744c-1.272-.965-.613-2.993.983-3.026l7.851-.16a1.686 1.686 0 0 0 1.557-1.131l2.578-7.417z"/></symbol><symbol id="telegram_icon" viewBox="0 0 32 32"><path fill="#ffd24e" style="fill:var(--color1, #ffd24e)" d="m29.919 6.162-4.225 19.925c-.319 1.406-1.15 1.756-2.331 1.094l-6.437-4.744-3.106 2.987c-.344.344-.631.631-1.294.631l.463-6.556L24.92 8.718c.519-.463-.113-.719-.806-.256l-14.75 9.287-6.35-1.987c-1.381-.431-1.406-1.381.288-2.044L28.14 4.149c1.15-.431 2.156.256 1.781 2.013z"/></symbol></defs></svg>